<?xml version="1.0" encoding="UTF-8" standalone="no"?>
<svg
   xmlns:dc="http://purl.org/dc/elements/1.1/"
   xmlns:cc="http://creativecommons.org/ns#"
   xmlns:rdf="http://www.w3.org/1999/02/22-rdf-syntax-ns#"
   xmlns:svg="http://www.w3.org/2000/svg"
   xmlns="http://www.w3.org/2000/svg"
   xmlns:xlink="http://www.w3.org/1999/xlink"
   xmlns:sodipodi="http://sodipodi.sourceforge.net/DTD/sodipodi-0.dtd"
   xmlns:inkscape="http://www.inkscape.org/namespaces/inkscape"
   style="shape-rendering:geometricPrecision;text-rendering:geometricPrecision;image-rendering:optimizeQuality"
   fill-rule="evenodd"
   xml:space="preserve"
   version="1.1"
   clip-rule="evenodd"
   viewBox="0 0 8769 8674"
   id="svg3100"
   inkscape:version="0.48.4 r9939"
   width="100%"
   height="100%"
   sodipodi:docname="ticket_black_moon_working.svg"><sodipodi:namedview
     pagecolor="#ffffff"
     bordercolor="#666666"
     borderopacity="1"
     objecttolerance="10"
     gridtolerance="10"
     guidetolerance="10"
     inkscape:pageopacity="0"
     inkscape:pageshadow="2"
     inkscape:window-width="983"
     inkscape:window-height="576"
     id="namedview3175"
     showgrid="false"
     inkscape:zoom="0.12"
     inkscape:cx="3431.2144"
     inkscape:cy="5638.797"
     inkscape:window-x="41"
     inkscape:window-y="24"
     inkscape:window-maximized="1"
     inkscape:current-layer="layer2"
     showguides="true"
     inkscape:guide-bbox="true"><sodipodi:guide
       orientation="0,1"
       position="7755.952,4033.556"
       id="guide3476" /><sodipodi:guide
       orientation="0,1"
       position="4858.4361,5591.5334"
       id="guide3515" /><sodipodi:guide
       orientation="0,1"
       position="5204.9912,4498.5519"
       id="guide3517" /><sodipodi:guide
       orientation="0,1"
       position="5418.2559,5151.675"
       id="guide3519" /><sodipodi:guide
       orientation="0,1"
       position="5371.6042,5891.4369"
       id="guide3521" /><sodipodi:guide
       orientation="1,0"
       position="3132.325,4385.2551"
       id="guide4450" /><sodipodi:guide
       orientation="1,0"
       position="5318.2881,4225.3065"
       id="guide4452" /></sodipodi:namedview><defs
     id="defs3102"><style
       type="text/css"
       id="style3104">
    .fil1 {fill:none}
    .fil6 {fill:#AE7274}
    .fil5 {fill:#B37D72}
    .fil11 {fill:#BA7728}
    .fil2 {fill:#D4989A}
    .fil8 {fill:#EBC05B}
    .fil0 {fill:#F5F2F2}
    .fil7 {fill:#6E392E;fill-rule:nonzero}
    .fil9 {fill:#73452A;fill-rule:nonzero}
    .fil12 {fill:#82522A;fill-rule:nonzero}
    .fil3 {fill:#945F54;fill-rule:nonzero}
    .fil4 {fill:#B37D72;fill-rule:nonzero}
    .fil10 {fill:#BA7728;fill-rule:nonzero}
  </style><filter
       x="-.15296"
       y="-.28552"
       width="1.3059"
       height="1.571"
       style="color-interpolation-filters:sRGB"
       id="filter13674-0"><feGaussianBlur
         stdDeviation="28.042143"
         id="feGaussianBlur13676-4" /></filter><filter
       x="-.15296"
       y="-.28552"
       width="1.3059"
       height="1.571"
       style="color-interpolation-filters:sRGB"
       id="filter13674-3-1"><feGaussianBlur
         stdDeviation="28.042143"
         id="feGaussianBlur13676-8-6" /></filter><filter
       x="-.15296"
       y="-.28552"
       width="1.3059"
       height="1.571"
       style="color-interpolation-filters:sRGB"
       id="filter13674-3"><feGaussianBlur
         stdDeviation="28.042143"
         id="feGaussianBlur13676-8" /></filter><filter
       x="-.15296"
       y="-.28552"
       width="1.3059"
       height="1.571"
       style="color-interpolation-filters:sRGB"
       id="filter13674"><feGaussianBlur
         stdDeviation="28.042143"
         id="feGaussianBlur13676" /></filter><radialGradient
       r="203.72"
       gradientTransform="translate(0 -.0016009)"
       cx="1177.6"
       cy="-622.67"
       gradientUnits="userSpaceOnUse"
       id="radialGradient4318-6-4-42-243-249"><stop
         offset="0"
         stop-color="#fff"
         id="stop13234" /><stop
         offset=".5"
         stop-opacity=".49804"
         stop-color="#4fe661"
         id="stop13236" /><stop
         offset="1"
         stop-opacity="0"
         stop-color="#00cf17"
         id="stop13238" /></radialGradient><radialGradient
       r="148.57"
       cx="1190.3"
       cy="-609.98"
       gradientUnits="userSpaceOnUse"
       id="radialGradient4302-0-7-136-179-624"><stop
         offset="0"
         stop-color="#9fffaa"
         id="stop13222" /><stop
         offset=".58026"
         stop-opacity="0"
         stop-color="#40e154"
         id="stop13224" /><stop
         offset=".72293"
         stop-opacity=".26471"
         stop-color="#2cdc41"
         id="stop13226" /><stop
         offset=".8751"
         stop-opacity=".12157"
         stop-color="#11d328"
         id="stop13228" /><stop
         offset="1"
         stop-opacity="0"
         stop-color="#00cf17"
         id="stop13230" /></radialGradient><radialGradient
       r="203.72"
       gradientTransform="translate(0 -.0016009)"
       cx="1177.6"
       cy="-622.67"
       gradientUnits="userSpaceOnUse"
       id="radialGradient4318-3-4-142-80-257-786"><stop
         offset="0"
         stop-color="#fff"
         id="stop9373" /><stop
         offset=".5"
         stop-opacity=".49804"
         stop-color="#724fe6"
         id="stop9375" /><stop
         offset="1"
         stop-opacity="0"
         stop-color="#3100cf"
         id="stop9377" /></radialGradient><radialGradient
       r="148.57"
       cx="1190.3"
       cy="-609.98"
       gradientUnits="userSpaceOnUse"
       id="radialGradient4302-00-1-373-212-530-483"><stop
         offset="0"
         stop-color="#b49fff"
         id="stop9361" /><stop
         offset=".58026"
         stop-opacity="0"
         stop-color="#6240e0"
         id="stop9363" /><stop
         offset=".72293"
         stop-opacity=".26471"
         stop-color="#532cdc"
         id="stop9365" /><stop
         offset=".8751"
         stop-opacity=".12157"
         stop-color="#3c10d3"
         id="stop9367" /><stop
         offset="1"
         stop-opacity="0"
         stop-color="#3100cf"
         id="stop9369" /></radialGradient><radialGradient
       r="203.72"
       gradientTransform="translate(0 -.0016009)"
       cx="1177.6"
       cy="-622.67"
       gradientUnits="userSpaceOnUse"
       id="radialGradient4318-3-934-546"><stop
         offset="0"
         stop-color="#fff"
         id="stop7241" /><stop
         offset=".5"
         stop-opacity=".49804"
         stop-color="#4f87e6"
         id="stop7243" /><stop
         offset="1"
         stop-opacity="0"
         stop-color="#004ccf"
         id="stop7245" /></radialGradient><radialGradient
       r="148.57"
       cx="1190.3"
       cy="-609.98"
       gradientUnits="userSpaceOnUse"
       id="radialGradient4302-00-808-708"><stop
         offset="0"
         stop-color="#9fc3ff"
         id="stop7229" /><stop
         offset=".58026"
         stop-opacity="0"
         stop-color="#417fe1"
         id="stop7231" /><stop
         offset=".72293"
         stop-opacity=".26471"
         stop-color="#2c6edc"
         id="stop7233" /><stop
         offset=".8751"
         stop-opacity=".12157"
         stop-color="#115bd4"
         id="stop7235" /><stop
         offset="1"
         stop-opacity="0"
         stop-color="#004ccf"
         id="stop7237" /></radialGradient><radialGradient
       r="203.72"
       gradientTransform="translate(0 -.0016009)"
       cx="1177.6"
       cy="-622.67"
       gradientUnits="userSpaceOnUse"
       id="radialGradient4318-6-195"><stop
         offset="0"
         stop-color="#fff"
         id="stop6378" /><stop
         offset=".5"
         stop-opacity=".49804"
         stop-color="#4fe6bd"
         id="stop6380" /><stop
         offset="1"
         stop-opacity="0"
         stop-color="#00cf95"
         id="stop6382" /></radialGradient><radialGradient
       r="148.57"
       cx="1190.3"
       cy="-609.98"
       gradientUnits="userSpaceOnUse"
       id="radialGradient4302-0-664"><stop
         offset="0"
         stop-color="#9fffe4"
         id="stop6366" /><stop
         offset=".58026"
         stop-opacity="0"
         stop-color="#42e1b4"
         id="stop6368" /><stop
         offset=".72293"
         stop-opacity=".26471"
         stop-color="#2cdcab"
         id="stop6370" /><stop
         offset=".8751"
         stop-opacity=".12157"
         stop-color="#12d49e"
         id="stop6372" /><stop
         offset="1"
         stop-opacity="0"
         stop-color="#00cf95"
         id="stop6374" /></radialGradient><filter
       x="-.1704"
       y="-.1704"
       width="1.3408"
       height="1.3408"
       style="color-interpolation-filters:sRGB"
       id="filter4292-8-8-7-7"><feGaussianBlur
         stdDeviation="15.734361"
         id="feGaussianBlur4294-1-1-8-42" /></filter><filter
       x="-.1704"
       y="-.1704"
       width="1.3408"
       height="1.3408"
       style="color-interpolation-filters:sRGB"
       id="filter4292-8-8-7-66"><feGaussianBlur
         stdDeviation="15.734361"
         id="feGaussianBlur4294-1-1-8-5" /></filter><filter
       x="-.1704"
       y="-.1704"
       width="1.3408"
       height="1.3408"
       style="color-interpolation-filters:sRGB"
       id="filter4292-8-8-7-6"><feGaussianBlur
         stdDeviation="15.734361"
         id="feGaussianBlur4294-1-1-8-4" /></filter><filter
       x="-.1704"
       y="-.1704"
       width="1.3408"
       height="1.3408"
       style="color-interpolation-filters:sRGB"
       id="filter4292-8-8-7"><feGaussianBlur
         stdDeviation="15.734361"
         id="feGaussianBlur4294-1-1-8" /></filter><filter
       x="-.1704"
       y="-.1704"
       width="1.3408"
       height="1.3408"
       style="color-interpolation-filters:sRGB"
       id="filter4292-8-8"><feGaussianBlur
         stdDeviation="15.734361"
         id="feGaussianBlur4294-1-1" /></filter><filter
       x="-.1704"
       y="-.1704"
       width="1.3408"
       height="1.3408"
       style="color-interpolation-filters:sRGB"
       id="filter4292-4-7"><feGaussianBlur
         stdDeviation="15.734361"
         id="feGaussianBlur4294-6-8" /></filter><filter
       x="-.1704"
       y="-.1704"
       width="1.3408"
       height="1.3408"
       style="color-interpolation-filters:sRGB"
       id="filter4292-4"><feGaussianBlur
         stdDeviation="15.734361"
         id="feGaussianBlur4294-6" /></filter><filter
       x="-.1704"
       y="-.1704"
       width="1.3408"
       height="1.3408"
       style="color-interpolation-filters:sRGB"
       id="filter4292-8"><feGaussianBlur
         stdDeviation="15.734361"
         id="feGaussianBlur4294-1" /></filter><radialGradient
       r="203.72"
       gradientTransform="translate(0 -.0016009)"
       cx="1177.6"
       cy="-622.67"
       gradientUnits="userSpaceOnUse"
       id="radialGradient4318"><stop
         offset="0"
         stop-color="#fff"
         id="stop4322" /><stop
         offset=".5"
         stop-opacity=".49804"
         stop-color="#4fe3e7"
         id="stop4326" /><stop
         offset="1"
         stop-opacity="0"
         stop-color="#00cacf"
         id="stop4324" /></radialGradient><filter
       x="-.1704"
       y="-.1704"
       width="1.3408"
       height="1.3408"
       style="color-interpolation-filters:sRGB"
       id="filter4292"><feGaussianBlur
         stdDeviation="15.734361"
         id="feGaussianBlur4294" /></filter><radialGradient
       r="148.57"
       cx="1190.3"
       cy="-609.98"
       gradientUnits="userSpaceOnUse"
       id="radialGradient4302"><stop
         offset="0"
         stop-color="#9ffdff"
         id="stop4298" /><stop
         offset=".58026"
         stop-opacity="0"
         stop-color="#42dfe2"
         id="stop4332" /><stop
         offset=".72293"
         stop-opacity=".26471"
         stop-color="#2cd8dc"
         id="stop4328" /><stop
         offset=".8751"
         stop-opacity=".12157"
         stop-color="#13d0d4"
         id="stop4330" /><stop
         offset="1"
         stop-opacity="0"
         stop-color="#00cacf"
         id="stop4300" /></radialGradient><radialGradient
       inkscape:collect="always"
       xlink:href="#radialGradient4302"
       id="radialGradient4444"
       gradientUnits="userSpaceOnUse"
       cx="1190.3"
       cy="-609.98"
       r="148.57" /><radialGradient
       inkscape:collect="always"
       xlink:href="#radialGradient4318"
       id="radialGradient4446"
       gradientUnits="userSpaceOnUse"
       gradientTransform="translate(0,-0.0016009)"
       cx="1177.6"
       cy="-622.67"
       r="203.72" /><radialGradient
       inkscape:collect="always"
       xlink:href="#radialGradient4318"
       id="radialGradient4448"
       gradientUnits="userSpaceOnUse"
       gradientTransform="translate(0,-0.0016009)"
       cx="1177.6"
       cy="-622.67"
       r="203.72" /><radialGradient
       inkscape:collect="always"
       xlink:href="#radialGradient4318-6-195"
       id="radialGradient4450"
       gradientUnits="userSpaceOnUse"
       gradientTransform="translate(0,-0.0016009)"
       cx="1177.6"
       cy="-622.67"
       r="203.72" /><radialGradient
       inkscape:collect="always"
       xlink:href="#radialGradient4318-6-195"
       id="radialGradient4452"
       gradientUnits="userSpaceOnUse"
       gradientTransform="translate(0,-0.0016009)"
       cx="1177.6"
       cy="-622.67"
       r="203.72" /><radialGradient
       inkscape:collect="always"
       xlink:href="#radialGradient4318-3-934-546"
       id="radialGradient4454"
       gradientUnits="userSpaceOnUse"
       gradientTransform="translate(0,-0.0016009)"
       cx="1177.6"
       cy="-622.67"
       r="203.72" /><radialGradient
       inkscape:collect="always"
       xlink:href="#radialGradient4318-3-934-546"
       id="radialGradient4456"
       gradientUnits="userSpaceOnUse"
       gradientTransform="translate(0,-0.0016009)"
       cx="1177.6"
       cy="-622.67"
       r="203.72" /><radialGradient
       inkscape:collect="always"
       xlink:href="#radialGradient4318-6-4-42-243-249"
       id="radialGradient4458"
       gradientUnits="userSpaceOnUse"
       gradientTransform="translate(0,-0.0016009)"
       cx="1177.6"
       cy="-622.67"
       r="203.72" /><radialGradient
       inkscape:collect="always"
       xlink:href="#radialGradient4318-6-4-42-243-249"
       id="radialGradient4460"
       gradientUnits="userSpaceOnUse"
       gradientTransform="translate(0,-0.0016009)"
       cx="1177.6"
       cy="-622.67"
       r="203.72" /><radialGradient
       inkscape:collect="always"
       xlink:href="#radialGradient4318-3-4-142-80-257-786"
       id="radialGradient4462"
       gradientUnits="userSpaceOnUse"
       gradientTransform="translate(0,-0.0016009)"
       cx="1177.6"
       cy="-622.67"
       r="203.72" /><radialGradient
       inkscape:collect="always"
       xlink:href="#radialGradient4318-3-4-142-80-257-786"
       id="radialGradient4464"
       gradientUnits="userSpaceOnUse"
       gradientTransform="translate(0,-0.0016009)"
       cx="1177.6"
       cy="-622.67"
       r="203.72" /><radialGradient
       inkscape:collect="always"
       xlink:href="#radialGradient4302"
       id="radialGradient4466"
       gradientUnits="userSpaceOnUse"
       cx="1190.3"
       cy="-609.98"
       r="148.57" /><radialGradient
       inkscape:collect="always"
       xlink:href="#radialGradient4318"
       id="radialGradient4468"
       gradientUnits="userSpaceOnUse"
       gradientTransform="translate(0,-0.0016009)"
       cx="1177.6"
       cy="-622.67"
       r="203.72" /><radialGradient
       inkscape:collect="always"
       xlink:href="#radialGradient4318"
       id="radialGradient4470"
       gradientUnits="userSpaceOnUse"
       gradientTransform="translate(0,-0.0016009)"
       cx="1177.6"
       cy="-622.67"
       r="203.72" /><radialGradient
       inkscape:collect="always"
       xlink:href="#radialGradient4302"
       id="radialGradient4472"
       gradientUnits="userSpaceOnUse"
       cx="1190.3"
       cy="-609.98"
       r="148.57" /><radialGradient
       inkscape:collect="always"
       xlink:href="#radialGradient4318"
       id="radialGradient4474"
       gradientUnits="userSpaceOnUse"
       gradientTransform="translate(0,-0.0016009)"
       cx="1177.6"
       cy="-622.67"
       r="203.72" /><radialGradient
       inkscape:collect="always"
       xlink:href="#radialGradient4318"
       id="radialGradient4476"
       gradientUnits="userSpaceOnUse"
       gradientTransform="translate(0,-0.0016009)"
       cx="1177.6"
       cy="-622.67"
       r="203.72" /><radialGradient
       inkscape:collect="always"
       xlink:href="#radialGradient4302"
       id="radialGradient4478"
       gradientUnits="userSpaceOnUse"
       cx="1190.3"
       cy="-609.98"
       r="148.57" /><radialGradient
       inkscape:collect="always"
       xlink:href="#radialGradient4318"
       id="radialGradient4480"
       gradientUnits="userSpaceOnUse"
       gradientTransform="translate(0,-0.0016009)"
       cx="1177.6"
       cy="-622.67"
       r="203.72" /><radialGradient
       inkscape:collect="always"
       xlink:href="#radialGradient4318"
       id="radialGradient4482"
       gradientUnits="userSpaceOnUse"
       gradientTransform="translate(0,-0.0016009)"
       cx="1177.6"
       cy="-622.67"
       r="203.72" /><radialGradient
       inkscape:collect="always"
       xlink:href="#radialGradient4302"
       id="radialGradient4484"
       gradientUnits="userSpaceOnUse"
       cx="1190.3"
       cy="-609.98"
       r="148.57" /><radialGradient
       inkscape:collect="always"
       xlink:href="#radialGradient4318"
       id="radialGradient4486"
       gradientUnits="userSpaceOnUse"
       gradientTransform="translate(0,-0.0016009)"
       cx="1177.6"
       cy="-622.67"
       r="203.72" /><radialGradient
       inkscape:collect="always"
       xlink:href="#radialGradient4318"
       id="radialGradient4488"
       gradientUnits="userSpaceOnUse"
       gradientTransform="translate(0,-0.0016009)"
       cx="1177.6"
       cy="-622.67"
       r="203.72" /></defs><metadata
     id="metadata3173"><rdf:RDF><cc:Work><dc:format>image/svg+xml</dc:format><dc:type
           rdf:resource="http://purl.org/dc/dcmitype/StillImage" /><cc:license
           rdf:resource="http://creativecommons.org/licenses/publicdomain/" /><dc:publisher><cc:Agent
             rdf:about="http://openclipart.org/"><dc:title>Openclipart</dc:title></cc:Agent></dc:publisher><dc:title /><dc:date>2013-09-12T23:54:41</dc:date><dc:description>Simple Tickets</dc:description><dc:source>http://openclipart.org/detail/183401/event-tickets-by-barrettward-183401</dc:source><dc:creator><cc:Agent><dc:title>barrettward</dc:title></cc:Agent></dc:creator><dc:subject><rdf:Bag><rdf:li>admit</rdf:li><rdf:li>admit one</rdf:li><rdf:li>event</rdf:li><rdf:li>event tickets</rdf:li><rdf:li>movie</rdf:li><rdf:li>movie tickets</rdf:li><rdf:li>ticket</rdf:li><rdf:li>tickets</rdf:li></rdf:Bag></dc:subject></cc:Work><cc:License
         rdf:about="http://creativecommons.org/licenses/publicdomain/"><cc:permits
           rdf:resource="http://creativecommons.org/ns#Reproduction" /><cc:permits
           rdf:resource="http://creativecommons.org/ns#Distribution" /><cc:permits
           rdf:resource="http://creativecommons.org/ns#DerivativeWorks" /></cc:License></rdf:RDF></metadata><g
     inkscape:groupmode="layer"
     id="layer1"
     inkscape:label="Elementos originales"
     style="display:none"
     sodipodi:insensitive="true"><g
       transform="translate(0,2.231809e-5)"
       style="display:inline"
       id="g4398"><path
         class="fil12"
         d="m 5198.2256,3030.3308 c 0.144,16.1548 -5.8712,28.8362 -17.8399,40.2708 -11.6057,10.5028 -25.4859,15.8262 -41.6408,15.9702 l -33.2414,-0.075 c -16.1549,0.144 -29.1994,-4.9394 -40.997,-15.9764 -10.8659,-10.6739 -17.4842,-23.9855 -17.9913,-39.2086 l 45.2102,-11.3594 0.4591,9.8381 c -0.5206,4.0901 1.1853,7.9747 4.1861,11.2906 3.0008,3.3159 5.433,5.3369 9.8862,4.9258 l 33.2414,0.075 c 4.0901,0.5207 7.0429,-1.5483 10.3588,-4.5491 2.3842,-3.3639 3.8366,-7.0909 4.3572,-11.181 l 0.2192,-17.0866 c 0.4726,-9.4751 -3.3024,-16.3125 -10.7564,-19.2173 l -61.701,-26.1912 c -22.9307,-10.0093 -33.8446,-26.0681 -33.6734,-48.5397 l 0.3766,-20.2449 c -0.144,-16.1549 5.8712,-28.8363 17.4768,-39.3391 11.6057,-10.5028 25.486,-15.8262 41.6408,-15.9702 l 33.2415,0.075 c 16.1548,-0.144 29.1993,4.9394 40.997,15.9764 11.7976,11.037 17.4841,23.9855 17.9912,39.2086 l -45.2102,11.3594 -0.4591,-9.8381 c 0.5206,-4.0901 -1.5484,-7.0429 -4.1861,-11.2906 -3.0008,-3.3159 -6.7278,-4.7683 -9.8862,-4.9258 l -33.2414,-0.075 c -4.0901,-0.5207 -7.0429,1.5483 -9.4271,4.9122 -2.3841,3.3639 -3.8365,7.0909 -3.9941,10.2493 l -0.4726,9.475 c 0.4591,9.8382 3.3023,16.3125 9.8246,18.8542 l 62.9958,25.6226 c 21.9989,9.6461 33.8446,26.0681 33.6735,48.5396 l -0.1231,27.8565 z"
         id="path3157"
         inkscape:connector-curvature="0"
         style="fill:#82522a;fill-rule:nonzero" /><polygon
         transform="matrix(0.93174993,0.36310064,-0.36310064,0.93174993,1967.0209,-884.08058)"
         points="4289,2587 4148,2642 4062,2420 4196,2368 4211,2405 4118,2441 4140,2496 4207,2470 4222,2508 4154,2534 4176,2588 4275,2550 "
         class="fil12"
         id="polygon3159"
         style="fill:#82522a;fill-rule:nonzero" /><polygon
         transform="matrix(0.93174993,0.36310064,-0.36310064,0.93174993,1967.0209,-884.08058)"
         points="4130,2650 3997,2701 3910,2479 3952,2463 4024,2647 4115,2612 "
         class="fil12"
         id="polygon3161"
         style="fill:#82522a;fill-rule:nonzero" /><polygon
         transform="matrix(0.93174993,0.36310064,-0.36310064,0.93174993,1967.0209,-884.08058)"
         points="3969,2712 3927,2729 3840,2506 3882,2490 "
         class="fil12"
         id="polygon3163"
         style="fill:#82522a;fill-rule:nonzero" /><polygon
         transform="matrix(0.93174993,0.36310064,-0.36310064,0.93174993,1967.0209,-884.08058)"
         points="3781,2644 3770,2533 3812,2517 3899,2740 3857,2756 3817,2655 3822,2707 3793,2718 3761,2677 3800,2778 3758,2794 3671,2572 3713,2556 "
         class="fil12"
         id="polygon3165"
         style="fill:#82522a;fill-rule:nonzero" /><path
         class="fil12"
         d="m 4113.9108,2926.531 -0.034,-24.6981 c 0.5206,-4.0901 -1.1853,-7.9747 -3.2544,-10.9275 -2.069,-2.9528 -5.4329,-5.3369 -9.8861,-4.9258 l -47.1697,-0.1367 0.3224,57.0079 47.1697,0.1366 c 8.5433,0.1096 13.8802,-5.3234 13.7842,-16.0933 z m 45.0401,157.0745 -47.1697,-0.1367 -46.5812,-100.7928 -11.7017,-0.2671 0.3433,101.0192 -44.9431,-0.3422 -0.4539,-238.4382 92.1128,0.4789 c 16.1549,-0.144 30.1311,5.3025 41.9288,16.3395 11.7976,11.037 17.4841,23.9855 17.6281,40.1404 l 0.034,24.6981 c -0.061,13.9283 -4.7818,26.041 -12.866,35.7696 -9.3791,10.2973 -20.4641,16.71 -34.1868,18.875 l 47.1499,102.0876 z m -174.7505,-0.4852 -151.3473,0.049 -0.4539,-238.4382 144.6675,0.5675 0.1784,40.8531 -99.7244,-0.2254 -0.4038,58.8713 72.7997,0.4654 0.1784,40.853 -72.7996,-0.4653 -0.041,57.9396 106.4041,-0.3913 0.1785,40.853 z m -219.7908,-157.5596 -0.034,-24.6981 c 0.5206,-4.0901 -1.1853,-7.9747 -3.2543,-10.9275 -2.0691,-2.9528 -5.433,-5.3369 -9.8862,-4.9258 l -47.1697,-0.1367 -0.041,57.9396 47.1697,0.1367 c 4.0901,0.5206 7.0429,-1.5484 9.4271,-4.9123 2.3841,-3.3639 3.8365,-7.0909 3.4254,-11.5441 z m 44.9431,0.3423 c 0.144,16.1548 -5.8711,28.8362 -17.8399,40.2707 -11.6056,10.5028 -25.4859,15.8262 -41.6408,15.9702 l -47.1697,-0.1367 0.3433,101.0193 -44.9431,-0.3423 -0.4539,-238.4382 92.1128,0.4789 c 16.1549,-0.144 30.1311,5.3025 41.9288,16.3395 11.7976,11.037 17.4841,23.9855 17.6281,40.1404 l 0.034,24.6982 z m -174.2017,102.7606 c 0.144,16.1549 -5.8712,28.8363 -17.8399,40.2708 -11.6057,10.5028 -25.4859,15.8262 -41.6408,15.9702 l -34.1732,-0.4382 c -16.1549,0.144 -30.1311,-5.3026 -40.997,-15.9765 -11.7976,-11.037 -17.4841,-23.9855 -17.6281,-40.1403 l 0.026,-184.5888 44.9431,0.3423 -0.026,184.5887 c -0.5207,4.0901 1.1853,7.9746 4.1861,11.2905 3.0008,3.316 5.4329,5.337 9.8861,4.9259 l 34.1732,0.4382 c 4.0901,0.5207 7.0429,-1.5484 9.4271,-4.9123 2.3841,-3.3639 3.8365,-7.0909 4.3572,-11.181 l 0.026,-184.5887 44.9431,0.3422 -0.026,184.5888 z"
         id="path3167"
         inkscape:connector-curvature="0"
         style="fill:#82522a;fill-rule:nonzero" /><path
         class="fil12"
         d="m 4425.3959,3016.7918 c -0.3766,20.245 -6.9124,37.0165 -21.834,50.52 -14.9216,13.5036 -31.3915,19.9643 -51.9996,20.5194 l -41.7847,-0.1847 c -19.3132,-0.014 -36.0847,-6.5493 -51.2463,-19.9705 -14.2298,-13.0581 -21.6222,-29.8911 -22.9035,-48.6357 l 56.1377,-14.6137 -0.6302,12.6334 c 0.048,5.3849 1.7539,9.2695 4.3916,13.5171 2.6377,4.2477 7.2965,6.0632 11.7497,5.6521 l 41.7847,0.1847 c 5.385,-0.048 9.2695,-1.754 12.9485,-5.6865 3.679,-3.9326 5.4945,-8.5913 5.4465,-13.9763 l -0.192,-21.5398 c 0.2671,-11.7016 -4.0765,-19.8338 -13.0309,-24.3966 l -77.5408,-32.364 c -28.5211,-12.1878 -42.0727,-32.4943 -42.8814,-60.7139 l 0.3287,-25.6299 c 0.014,-19.3132 7.4811,-35.7216 21.4709,-49.5883 14.9216,-13.5036 31.7547,-20.8961 51.9996,-20.5194 l 41.7848,0.1847 c 19.3132,0.014 37.0164,6.9124 51.2462,19.9705 14.2298,13.0581 21.6222,29.8911 22.5404,49.5674 l -55.7745,13.682 -0.3016,-12.9965 c -0.4111,-4.4532 -1.7539,-9.2695 -5.3234,-13.8802 -3.5694,-4.6108 -7.2964,-6.0632 -12.6814,-6.0152 l -41.7847,-0.1847 c -4.4532,0.4111 -8.3378,2.1171 -12.0168,6.0496 -2.7472,4.2957 -4.5627,8.9544 -5.0834,13.0445 l -0.2671,11.7017 c 0.3016,12.9965 3.7134,20.7656 12.0992,24.0335 l 77.5408,32.364 c 27.5894,11.8247 42.4358,31.5626 41.9496,60.3508 l 0.1304,35.4681 z"
         id="path3169"
         inkscape:connector-curvature="0"
         style="fill:#82522a;fill-rule:nonzero" /><path
         class="fil12"
         d="m 3455.2826,3016.5248 c -0.3767,20.245 -6.9125,37.0164 -21.8341,50.52 -14.9215,13.5036 -31.3915,19.9643 -51.9995,20.5194 l -41.7848,-0.1847 c -19.3132,-0.014 -36.0847,-6.5493 -51.2462,-19.9705 -14.2298,-13.0581 -21.6223,-29.8911 -22.9036,-48.6357 l 56.1377,-14.6137 -0.6302,12.6334 c 0.048,5.3849 1.7539,9.2695 4.3916,13.5171 2.6377,4.2477 7.2965,6.0632 11.7497,5.6521 l 41.7847,0.1847 c 5.385,-0.048 9.2696,-1.754 12.9486,-5.6865 3.679,-3.9326 5.4945,-8.5913 5.4465,-13.9763 l -0.192,-21.5398 c 0.2671,-11.7016 -4.0766,-19.8338 -13.031,-24.3966 l -77.5408,-32.364 c -28.5211,-12.1878 -42.0727,-32.4943 -42.8813,-60.7139 l 0.3286,-25.6299 c 0.014,-19.3133 7.4812,-35.7217 21.471,-49.5883 14.9215,-13.5036 31.7546,-20.8961 51.9995,-20.5194 l 41.7848,0.1847 c 19.3132,0.014 37.0165,6.9124 51.2463,19.9705 14.2297,13.0581 21.6222,29.8911 22.5404,49.5674 l -55.7746,13.682 -0.3015,-12.9965 c -0.4111,-4.4532 -1.754,-9.2695 -5.3234,-13.8802 -3.5695,-4.6108 -7.2965,-6.0632 -12.6814,-6.0152 l -41.7848,-0.1847 c -4.4532,0.4111 -8.3377,2.1171 -12.0167,6.0496 -2.7473,4.2957 -4.5628,8.9544 -5.0834,13.0445 l -0.2672,11.7017 c 0.3016,12.9965 3.7135,20.7656 12.0992,24.0335 l 77.5408,32.364 c 27.5894,11.8247 42.4359,31.5626 41.9496,60.3508 l 0.1305,35.4681 z"
         id="path3171"
         inkscape:connector-curvature="0"
         style="fill:#82522a;fill-rule:nonzero" /></g><path
       style="fill:#82522a;fill-rule:nonzero;display:inline"
       inkscape:connector-curvature="0"
       id="path3155"
       d="m 3401.5511,4176.1601 -75.0262,-0.2598 -15.2033,-101.4439 -82.6378,-0.01 -14.5167,100.5946 -73.1627,0.4664 92.6219,-650.7851 74.0945,-0.1033 93.8303,651.5374 z m -105.3232,-211.6909 -24.7817,-176.011 -24.6147,176.0799 50.3281,0.2942 z m 357.4351,57.7246 c 0.021,44.0114 -9.6869,79.9385 -27.6228,109.4394 -17.9359,29.5009 -39.9004,44.5529 -65.5303,44.2243 l -145.0306,0.3641 0.1294,-110.4943 18.3815,-0.3495 0.2503,-430.2754 -18.3814,0.3495 0.1294,-110.4942 145.0305,-0.3642 c 24.6982,-0.034 46.7451,14.9967 65.209,44.7302 18.4638,29.7336 27.7062,66.6061 28.0902,109.6857 l -0.6552,343.1844 z m -71.5048,-1.034 0.2921,-342.2527 c -0.096,-10.7699 -2.4186,-21.3342 -6.3991,-30.3982 -3.9805,-9.0639 -9.7766,-13.4691 -16.0933,-13.7842 l -55.713,-0.2463 -0.2504,430.2755 55.713,0.2462 c 6.3167,0.3151 11.6537,-5.1179 16.2165,-14.0723 4.5627,-8.9544 6.3302,-18.9981 6.5973,-30.6997 z m 346.5974,154.3867 -70.9361,0.2608 -0.4132,-296.3778 -23.6558,137.8165 -48.4645,0.432 -23.514,-137.9532 0.4133,296.3778 -70.9362,0.2609 0.5091,-651.264 70.9362,-0.2608 48.1035,292.4244 48.4625,-292.3566 70.9361,-0.2609 -0.5091,651.264 z m 107.336,-0.028 -70.9362,0.2609 0.5091,-651.264 70.9362,-0.2609 -0.5091,651.264 z m 263.153,-540.3263 -82.6378,-0.01 -0.3797,540.7697 -70.9361,0.2608 0.3797,-540.7697 -81.706,0.3569 0.1294,-110.4943 234.9167,0.3203 -0.1293,110.4943 z m 473.3373,393.742 c 0.021,44.0114 -9.6868,79.9385 -27.6228,109.4394 -17.9359,29.5009 -39.9003,44.5529 -65.5302,44.2243 l -52.5547,-0.089 c -25.6299,-0.3287 -46.7451,-14.9967 -65.572,-43.7985 -17.5322,-29.3705 -26.7746,-66.243 -27.1585,-109.3226 l -0.215,-357.4758 c -0.021,-44.0113 9.6868,-79.9385 27.6228,-109.4394 17.9359,-29.5009 39.9004,-44.5529 65.5303,-44.2242 l 52.5546,0.089 c 24.6982,-0.034 46.7451,14.9967 65.5721,43.7985 18.4638,29.7336 28.0693,65.6743 27.1584,109.3225 l 0.215,357.4758 z m -71.5047,-1.034 0.7167,-357.1127 c -0.096,-10.7699 -1.8499,-20.0394 -5.8305,-29.1033 -3.9805,-9.064 -8.8448,-13.1061 -15.1615,-13.4212 l -52.5547,-0.089 c -6.3167,-0.3151 -11.2905,4.1861 -14.9215,13.5036 -4.5628,8.9544 -6.3303,18.9981 -6.2343,29.768 l -0.7168,357.1127 c 0.096,10.7699 2.4186,21.3343 6.3992,30.3982 3.9805,9.064 9.7766,13.4692 15.1615,13.4212 l 52.5547,0.089 c 6.3167,0.3151 11.2905,-4.1861 14.9215,-13.5036 3.631,-9.3175 6.3303,-18.9981 6.2343,-29.768 z m 346.9125,148.07 -70.9361,0.2608 -96.877,-368.3135 0.3109,368.2457 -70.9361,0.2609 0.5091,-651.264 70.9361,-0.2608 0.2056,2.2266 96.5139,369.2452 -0.1534,-371.404 70.9361,-0.2609 -0.5091,651.264 z m 275.7698,0.1419 -239.37,0.091 0.5091,-651.264 228.6001,0.01 -0.1294,110.4943 -156.7322,0.097 -0.4236,160.8223 114.5843,0.6501 -0.1293,110.4942 -114.5844,-0.65 0.3026,158.9588 167.5021,-0.193 -0.1293,110.4943 z"
       class="fil12" /></g><g
     inkscape:groupmode="layer"
     id="layer2"
     inkscape:label="Trabajo"
     style="display:inline"><polygon
       style="fill:none"
       id="polygon3109"
       class="fil1"
       points="0,8674 0,0 8769,0 8769,8674 " /><path
       id="path3145"
       style="fill:none;stroke:#000000;stroke-opacity:1"
       d="m 1601.9213,2156.8986 5261.5291,1.5718 -0.01,82.6378 c -39.5581,-0.3902 -72.5116,31.8443 -71.9701,71.7656 -0.3902,39.5582 31.8444,72.5116 71.7656,71.9701 l -0.5884,100.6561 c -39.5582,-0.3902 -72.5117,31.8444 -71.9701,71.7656 -0.3903,39.5582 31.8443,72.5117 71.7656,71.9702 l -0.5885,100.6561 c -39.5581,-0.3903 -72.5116,31.8443 -71.9701,71.7656 -0.3902,39.5581 31.8444,72.5116 71.7656,71.9701 l -0.3349,108.2677 c -233.0533,0.4059 -422.6419,189.4697 -422.236,422.523 0.4059,233.0533 189.4698,422.642 422.523,422.2361 l -0.3349,108.2676 c -39.5581,-0.3902 -72.5116,31.8444 -71.9701,71.7656 -0.3902,39.5582 31.8444,72.5117 71.7656,71.9701 l -0.5884,100.6562 c -39.5582,-0.3903 -72.5117,31.8443 -71.9701,71.7656 -0.3903,39.5581 31.8443,72.5116 71.7656,71.9701 l -0.5885,100.6561 c -39.5581,-0.3902 -72.5116,31.8444 -71.9701,71.7656 -0.3902,39.5582 31.8444,72.5116 71.7656,71.9701 l -0.01,82.6378 -5261.5291,-1.5718 0.01,-82.6378 c 39.5582,0.3902 72.5116,-31.8444 71.9701,-71.7656 0.3902,-39.5582 -31.8444,-72.5116 -71.7656,-71.9701 l 0.5885,-100.6561 c 39.5581,0.3902 72.5116,-31.8444 71.9701,-71.7657 0.3902,-39.5581 -31.8444,-72.5116 -71.7657,-71.9701 l 0.5885,-100.6561 c 39.5582,0.3902 72.5116,-31.8443 71.9701,-71.7656 0.3902,-39.5582 -31.8443,-72.5116 -71.7656,-71.9701 l 0.3349,-108.2677 c 233.0533,-0.4059 422.6419,-189.4697 422.236,-422.523 -0.4059,-233.0533 -189.4697,-422.642 -422.523,-422.2361 l 0.3349,-108.2676 c 39.5582,0.3902 72.5116,-31.8444 71.9701,-71.7656 0.3902,-39.5582 -31.8444,-72.5117 -71.7656,-71.9702 l 0.5885,-100.6561 c 39.5581,0.3903 72.5116,-31.8443 71.9701,-71.7656 0.3902,-39.5581 -31.8444,-72.5116 -71.7657,-71.9701 l 0.5885,-100.6561 c 39.5582,0.3902 72.5116,-31.8444 71.9701,-71.7656 0.3902,-39.5582 -31.8443,-72.5117 -71.7656,-71.9701 l 0.01,-82.6378 z" /><g
       style="display:inline"
       id="layer1-7"
       transform="matrix(5.9443365,0,0,5.9443365,220.78023,357.30573)"><g
         style="fill-opacity:0.97646999"
         id="g3351"
         transform="translate(362,190)"><path
           style="fill:#d7ded1"
           inkscape:connector-curvature="0"
           id="path2506"
           d="m 0.46804,65.119 c -23.184,0 -44,-21.336 -44,-4.5 0,3.035 -10.388,3.952 -9.25,6.719 -63.078,10.384 -112.24,47.322 -140.78,102.09 -25.91,2.51 -12.97,17.78 -12.97,38.69 0,14.48 -23.36,29.17 -8.85,36.47 -0.47,5.64 -0.71,11.33 -0.71,17.09 0,110.4 89.6,200 200,200 10.39,0 20.59,-0.81 30.558,-2.34 -0.003,0.09 0,0.19 0,0.28 0,5.8 8.152,-3.5 14.5,-3.5 6.348,0 8.5,9.3 8.5,3.5 0,-1.75 -0.452,-3.43 -1.281,-4.88 16.477,-4.45 28.623,-9.94 43.125,-18.21 13.65,3.94 15.436,4.08 20.656,0.59 12.482,-8.36 -6.219,-19.65 18.502,-12.5 6.44,1.86 -1.94,-5.67 -6.44,-9.41 5.84,-4.88 11.41,-10.08 16.66,-15.59 2.56,4.5 2.11,-7.5 7.28,-7.5 8,0 5.5,-3.17 5.5,-12 0,-6.26 10.72,-0.69 5.97,-3.31 19.2,-27.22 31.79,-59.44 35.4,-94.32 6.6,-3.31 5.63,-18.12 -0.37,-37.37 -6.74,-21.61 5.73,-44 -2,-44 -1.79,0 -3.49,0.99 -5.06,2.78 -20.43,-67.69 -69.77,-117.28 -139.07,-133.78 2.005,-3.557 -5.872,-5.423 -5.872,-9.501 0,-16.836 -6.816,4.5 -30,4.5 z" /><path
           style="fill:#eef0ec;fill-rule:evenodd"
           inkscape:connector-curvature="0"
           id="path2510"
           d="m -26.562,66.625 c -4.941,0.192 -7.521,5.872 -11.157,9.437 -16.426,0.764 -33.059,4.951 -49.125,14.094 -40.526,23.064 -68.586,60.084 -87.036,93.064 -7.61,-0.28 -15.18,-2.2 -22.68,-1.94 -8.37,2.42 -5.01,11.76 -1.6,16.94 3.75,7.9 1.8,17.96 -4.72,23.84 -6.8,3.75 -4.63,12.16 3.04,12.32 0.83,0.31 1.62,0.47 2.37,0.53 -4.15,11.46 -6.03,18.59 -6.03,18.59 0,0 216.36,-190.21 306.88,-117.38 90.52,72.83 -33.439,-30.91 -78.286,-48.432 0.584,-5.486 3.553,-14.122 -2.563,-17.219 -6.025,2.92 -12.85,2.84 -19.375,3.219 -9.6219,1.651 -17.833,-4.359 -26.781,-6.563 -1.075,-0.374 -2.039,-0.535 -2.937,-0.5 z" /><path
           style="fill:#c4ccbd;fill-rule:evenodd"
           inkscape:connector-curvature="0"
           id="path2512"
           d="m 162.06,305.12 c -109.6,59.4 -180.31,128.69 -292.03,106.07 0,0 69.282,45.3 143.72,38 1.833,1.75 3.533,3.65 5.875,4.59 4.636,0.69 8.78,-2.67 12,-5.59 0.662,-0.64 1.062,-1.36 1.281,-2.1 17.637,-4.01 35.269,-11.37 52.032,-23.43 3.292,2.92 6.495,6.16 10.124,5.37 3.817,-4.95 8.388,-9.62 11.818,-14.44 -0.28,-2.01 -0.83,-5.31 -1.85,-8.18 5.45,-5.51 10.75,-11.61 15.88,-18.38 4.13,-2.65 7.9,-5.92 11.25,-9.53 2.11,-2.51 5.33,-5.64 3.53,-9.19 -0.32,-0.45 -0.8,-0.92 -1.28,-1.4 10.27,-17.19 19.59,-37.6 27.65,-61.79 z" /></g><path
         style="fill:#c4ccbe"
         inkscape:connector-curvature="0"
         id="path2385"
         transform="matrix(0.30544,0,0,0.30544,194.47,315.86)"
         d="m 551.43,460.93 a 200,200 0 1 1 -400,0 200,200 0 1 1 400,0 z" /><path
         style="fill:#a2ae98"
         inkscape:connector-curvature="0"
         id="path2387"
         d="m 293.95,401.68 c -28.2,4.12 -48.51,28.37 -48.51,56.06 6.43,-23.89 26.93,-39.84 52.95,-43.64 19.19,-2.8 37.21,0.19 50.79,12 -11.82,-17.48 -32.97,-27.67 -55.23,-24.42 z" /><path
         style="fill:#ececec"
         inkscape:connector-curvature="0"
         id="path2392"
         d="m 290.7,391.89 c -28.2,4.13 -50.25,24.46 -50.24,52.15 6.43,-23.89 26.48,-42.9 52.5,-46.71 19.19,-2.81 37.65,3.24 51.23,15.05 -11.82,-17.48 -31.23,-23.75 -53.49,-20.49 z" /><path
         style="fill:#a2ae98"
         inkscape:connector-curvature="0"
         id="path2394"
         d="m 363.16,455.25 c -0.24,6.16 -1.38,12.21 -3.32,17.97 1.49,-0.91 3.1,-1.63 4.82,-2.13 0.16,-5.34 -0.32,-10.68 -1.5,-15.84 z m 12.43,21.5 c -0.3,7.99 -5.26,15.43 -13.18,18.5 -6.06,1.94 -11.39,3.16 -12.03,-4.03 -1.01,1.34 -2.08,2.64 -3.19,3.9 -0.69,-0.27 -1.38,-0.58 -2.03,-0.93 0.51,0.48 1.08,0.93 1.65,1.37 -6.5,7.25 -14.77,13.12 -24.47,16.88 -18.08,7.01 -37.41,5.24 -53.28,-3.25 15.41,14.41 40.05,23.56 61.03,15.43 10.82,-4.19 19.32,-11.99 25.19,-21.59 0.84,-3.34 2.38,-1.78 9.63,-3.84 8.59,-3.33 12.68,-13.72 10.68,-22.44 z" /><g
         id="g3468"><path
           style="fill:#c4ccbe"
           inkscape:connector-curvature="0"
           id="path2407"
           transform="matrix(0.13119,0,0,0.13119,265.51,542.98)"
           d="m 551.43,460.93 a 200,200 0 1 1 -400,0 200,200 0 1 1 400,0 z" /><path
           style="fill:#a2ae98"
           inkscape:connector-curvature="0"
           id="path2409"
           d="m 308.24,579.84 c -12.11,1.77 -20.84,12.18 -20.83,24.08 2.76,-10.26 11.56,-17.11 22.74,-18.75 8.24,-1.2 15.98,0.09 21.81,5.16 -5.07,-7.51 -14.16,-11.89 -23.72,-10.49 z" /><path
           style="fill:#ececec"
           inkscape:connector-curvature="0"
           id="path2411"
           d="m 306.85,575.63 c -12.12,1.78 -21.59,10.51 -21.58,22.4 2.76,-10.26 11.37,-18.42 22.55,-20.06 8.24,-1.21 16.16,1.39 22,6.46 -5.08,-7.5 -13.41,-10.19 -22.97,-8.8 z" /><path
           style="fill:#a2ae98"
           inkscape:connector-curvature="0"
           id="path2413"
           d="m 323.98,632.86 c 11.41,-4.43 16.84,-18.21 14.2,-29.8 -0.41,10.61 -6.99,20.49 -17.53,24.57 -7.76,3.01 -16.07,2.24 -22.89,-1.41 6.62,6.2 17.2,10.13 26.22,6.64 z" /><path
           style="fill:#ececec"
           inkscape:connector-curvature="0"
           id="path2415"
           d="m 317.07,627.04 c 11.89,-2.93 19.56,-14.15 18.4,-25.98 -1.75,10.47 -8.78,18.31 -19.75,21.02 -8.09,2 -16.98,1.31 -23.27,-3.18 5.78,6.98 15.24,10.46 24.62,8.14 z" /></g><path
         style="fill:#c4ccbe"
         inkscape:connector-curvature="0"
         id="path2419"
         transform="matrix(0.06262,0,0,0.06262,192.84,475.64)"
         d="m 551.43,460.93 a 200,200 0 1 1 -400,0 200,200 0 1 1 400,0 z" /><path
         style="fill:#808080"
         inkscape:connector-curvature="0"
         id="path2421"
         d="m 213.23,493.23 c -5.78,0.85 -9.94,5.82 -9.94,11.5 1.32,-4.9 5.52,-8.17 10.85,-8.95 3.94,-0.57 7.63,0.04 10.41,2.46 -2.42,-3.58 -6.75,-5.67 -11.32,-5.01 z" /><path
         style="fill:#ececec"
         inkscape:connector-curvature="0"
         id="path2423"
         d="m 212.57,491.23 c -5.78,0.84 -10.3,5.01 -10.3,10.69 1.31,-4.9 5.43,-8.8 10.76,-9.58 3.93,-0.57 7.72,0.67 10.5,3.09 -2.42,-3.59 -6.4,-4.87 -10.96,-4.2 z" /><path
         style="fill:#808080"
         inkscape:connector-curvature="0"
         id="path2425"
         d="m 220.74,518.54 c 5.45,-2.11 8.05,-8.69 6.78,-14.22 -0.19,5.06 -3.34,9.78 -8.36,11.73 -3.71,1.43 -7.67,1.07 -10.93,-0.67 3.16,2.95 8.21,4.83 12.51,3.16 z" /><path
         style="fill:#ececec"
         inkscape:connector-curvature="0"
         id="path2427"
         d="m 217.45,515.77 c 5.67,-1.41 9.33,-6.76 8.78,-12.41 -0.84,5 -4.19,8.74 -9.43,10.04 -3.86,0.95 -8.1,0.62 -11.11,-1.52 2.76,3.33 7.28,4.99 11.76,3.89 z" /><path
         style="fill:#daded5"
         inkscape:connector-curvature="0"
         id="path2431"
         transform="matrix(0.11832,0,0,0.11832,215.45,297.93)"
         d="m 551.43,460.93 a 200,200 0 1 1 -400,0 200,200 0 1 1 400,0 z" /><path
         style="fill:#808080"
         inkscape:connector-curvature="0"
         id="path2433"
         d="m 253.99,331.17 c -10.93,1.6 -18.79,10.99 -18.79,21.71 2.49,-9.25 10.43,-15.43 20.51,-16.9 7.43,-1.08 14.41,0.08 19.67,4.65 -4.58,-6.77 -12.77,-10.72 -21.39,-9.46 z" /><path
         style="fill:#ececec"
         inkscape:connector-curvature="0"
         id="path2435"
         d="m 252.73,327.38 c -10.93,1.6 -19.47,9.47 -19.46,20.2 2.49,-9.26 10.25,-16.62 20.33,-18.09 7.44,-1.09 14.59,1.25 19.85,5.82 -4.58,-6.77 -12.1,-9.19 -20.72,-7.93 z" /><path
         style="fill:#808080"
         inkscape:connector-curvature="0"
         id="path2437"
         d="m 268.18,378.99 c 10.29,-3.99 15.19,-16.42 12.8,-26.88 -0.37,9.58 -6.3,18.48 -15.8,22.16 -7.01,2.72 -14.49,2.02 -20.64,-1.27 5.97,5.59 15.51,9.13 23.64,5.99 z" /><path
         style="fill:#ececec"
         inkscape:connector-curvature="0"
         id="path2439"
         d="m 261.95,373.74 c 10.72,-2.65 17.64,-12.76 16.6,-23.44 -1.59,9.46 -7.93,16.52 -17.82,18.97 -7.29,1.8 -15.31,1.17 -20.99,-2.87 5.21,6.3 13.75,9.43 22.21,7.34 z" /><path
         style="fill:#daded5"
         inkscape:connector-curvature="0"
         id="path2455"
         transform="matrix(0.06262,0,0,0.06262,375.84,287.64)"
         d="m 551.43,460.93 a 200,200 0 1 1 -400,0 200,200 0 1 1 400,0 z" /><path
         style="fill:#808080"
         inkscape:connector-curvature="0"
         id="path2457"
         d="m 396.23,305.23 c -5.78,0.85 -9.94,5.82 -9.94,11.5 1.32,-4.9 5.52,-8.17 10.85,-8.95 3.94,-0.57 7.63,0.04 10.41,2.46 -2.42,-3.58 -6.75,-5.67 -11.32,-5.01 z" /><path
         style="fill:#ececec"
         inkscape:connector-curvature="0"
         id="path2459"
         d="m 395.57,303.23 c -5.78,0.84 -10.3,5.01 -10.3,10.69 1.31,-4.9 5.43,-8.8 10.76,-9.58 3.93,-0.57 7.72,0.67 10.5,3.09 -2.42,-3.59 -6.4,-4.87 -10.96,-4.2 z" /><path
         style="fill:#808080"
         inkscape:connector-curvature="0"
         id="path2461"
         d="m 403.74,330.54 c 5.45,-2.11 8.05,-8.69 6.78,-14.22 -0.19,5.06 -3.34,9.78 -8.36,11.73 -3.71,1.43 -7.67,1.07 -10.93,-0.67 3.16,2.95 8.21,4.83 12.51,3.16 z" /><path
         style="fill:#ececec"
         inkscape:connector-curvature="0"
         id="path2463"
         d="m 400.45,327.77 c 5.67,-1.41 9.33,-6.76 8.78,-12.41 -0.84,5 -4.19,8.74 -9.43,10.04 -3.86,0.95 -8.1,0.62 -11.11,-1.52 2.76,3.33 7.28,4.99 11.76,3.89 z" /><g
         id="g3418"
         transform="matrix(0.708,0.14107,-0.16809,0.84361,236.98,12.64)"><path
           style="fill:#c4ccbe"
           inkscape:connector-curvature="0"
           id="path2491"
           transform="matrix(0.11832,0,0,0.11832,443.45,470.93)"
           d="m 551.43,460.93 a 200,200 0 1 1 -400,0 200,200 0 1 1 400,0 z" /><path
           style="fill:#a2ae98"
           inkscape:connector-curvature="0"
           id="path2493"
           d="m 481.99,504.17 c -10.93,1.6 -18.79,10.99 -18.79,21.71 2.49,-9.25 10.43,-15.43 20.51,-16.9 7.43,-1.08 14.41,0.08 19.67,4.65 -4.58,-6.77 -12.77,-10.72 -21.39,-9.46 z" /><path
           style="fill:#ececec"
           inkscape:connector-curvature="0"
           id="path2495"
           d="m 480.73,500.38 c -10.93,1.6 -19.47,9.47 -19.46,20.2 2.49,-9.26 10.25,-16.62 20.33,-18.09 7.44,-1.09 14.59,1.25 19.85,5.82 -4.58,-6.77 -12.1,-9.19 -20.72,-7.93 z" /><path
           style="fill:#a2ae98"
           inkscape:connector-curvature="0"
           id="path2497"
           d="m 496.18,551.99 c 10.29,-3.99 15.19,-16.42 12.8,-26.88 -0.37,9.58 -6.3,18.48 -15.8,22.16 -7.01,2.72 -14.49,2.02 -20.64,-1.27 5.97,5.59 15.51,9.13 23.64,5.99 z" /><path
           style="fill:#ececec"
           inkscape:connector-curvature="0"
           id="path2499"
           d="m 489.95,546.74 c 10.72,-2.65 17.64,-12.76 16.6,-23.44 -1.59,9.46 -7.93,16.52 -17.82,18.97 -7.29,1.8 -15.31,1.17 -20.99,-2.87 5.21,6.3 13.75,9.43 22.21,7.34 z" /></g><path
         style="fill:#c4ccbe"
         inkscape:connector-curvature="0"
         id="path2524"
         transform="matrix(0.098724,0,0,0.098724,321.4,432.05)"
         d="m 551.43,460.93 a 200,200 0 1 1 -400,0 200,200 0 1 1 400,0 z" /><path
         style="fill:#ececec"
         inkscape:connector-curvature="0"
         id="path2528"
         d="m 369.09,480.75 c -0.3,7.99 -13.51,11.43 -22.93,10 -11.13,7.74 -17.66,9.77 -32.82,15.94 -21.58,4.26 -39.41,-2.01 -55.28,-10.5 15.41,14.41 40.05,23.56 61.03,15.43 10.82,-4.19 21.32,-8.49 27.19,-18.09 3.09,0.41 5.13,1.97 10.63,1.66 3.59,0.42 12.18,1.28 12.18,-14.44 z" /><path
         style="fill:#c4ccbe"
         inkscape:connector-curvature="0"
         id="path2568"
         transform="matrix(0.12384,0,0,0.12384,336.62,481.09)"
         d="m 551.43,460.93 a 200,200 0 1 1 -400,0 200,200 0 1 1 400,0 z" /><path
         style="fill:#a2ae98"
         inkscape:connector-curvature="0"
         id="path2570"
         d="m 376.95,515.88 c -11.43,1.67 -19.66,11.5 -19.66,22.73 2.6,-9.68 10.91,-16.15 21.46,-17.69 7.79,-1.14 15.09,0.07 20.6,4.86 -4.79,-7.08 -13.37,-11.22 -22.4,-9.9 z" /><path
         style="fill:#ececec"
         inkscape:connector-curvature="0"
         id="path2572"
         d="m 375.64,511.91 c -11.44,1.68 -20.38,9.92 -20.37,21.15 2.6,-9.69 10.73,-17.4 21.28,-18.94 7.79,-1.14 15.27,1.31 20.77,6.1 -4.79,-7.09 -12.66,-9.63 -21.68,-8.31 z" /><path
         style="fill:#a2ae98"
         inkscape:connector-curvature="0"
         id="path2574"
         d="m 391.81,565.93 c 10.77,-4.17 15.9,-17.19 13.4,-28.13 -0.38,10.02 -6.6,19.34 -16.54,23.2 -7.33,2.84 -15.17,2.11 -21.61,-1.33 6.25,5.84 16.24,9.56 24.75,6.26 z" /><path
         style="fill:#ececec"
         inkscape:connector-curvature="0"
         id="path2576"
         d="m 385.29,560.44 c 11.22,-2.77 18.46,-13.36 17.37,-24.53 -1.65,9.89 -8.29,17.29 -18.64,19.85 -7.64,1.88 -16.03,1.23 -21.98,-3 5.46,6.59 14.4,9.87 23.25,7.68 z" /><path
         style="fill:#e2e4df;fill-opacity:0.97646999"
         inkscape:connector-curvature="0"
         id="path2597"
         transform="matrix(0.097159,-0.01751,0.0079452,0.044087,261.22,274.57)"
         d="m 551.43,460.93 a 200,200 0 1 1 -400,0 200,200 0 1 1 400,0 z" /><path
         style="fill:#808080"
         inkscape:connector-curvature="0"
         id="path2599"
         d="m 295.09,281.26 c -8.86,2.21 -14.69,6.87 -13.97,10.87 1.43,-3.82 7.53,-7.29 15.71,-9.33 6.03,-1.51 11.84,-2.11 16.47,-1.18 -4.22,-1.85 -11.21,-2.11 -18.21,-0.36 z" /><path
         style="fill:#ececec"
         inkscape:connector-curvature="0"
         id="path2601"
         d="m 293.81,280.03 c -8.87,2.21 -15.35,6.41 -14.63,10.41 1.42,-3.82 7.31,-7.71 15.49,-9.75 6.03,-1.51 12.05,-1.69 16.68,-0.77 -4.21,-1.84 -10.55,-1.63 -17.54,0.11 z" /><path
         style="fill:#808080"
         inkscape:connector-curvature="0"
         id="path2603"
         d="m 309.96,296.98 c 8.18,-3.01 11.37,-8.37 8.71,-11.91 0.34,3.62 -3.94,7.82 -11.49,10.59 -5.57,2.05 -11.77,2.9 -17.04,2.58 5.28,1.2 13.36,1.11 19.82,-1.26 z" /><path
         style="fill:#ececec"
         inkscape:connector-curvature="0"
         id="path2605"
         d="m 304.49,295.94 c 8.63,-2.57 13.63,-7.36 12.06,-11.19 -0.67,3.76 -5.4,7.33 -13.36,9.7 -5.87,1.76 -12.49,2.71 -17.43,2.04 4.71,1.58 11.93,1.48 18.73,-0.55 z" /><path
         style="fill:#c4ccbe"
         inkscape:connector-curvature="0"
         id="path2621"
         transform="matrix(0.043895,-0.019239,0.044616,0.10179,178.48,545.14)"
         d="m 551.43,460.93 a 200,200 0 1 1 -400,0 200,200 0 1 1 400,0 z" /><path
         style="fill:#a2ae98"
         inkscape:connector-curvature="0"
         id="path2623"
         d="m 205.31,567.47 c -3.45,3.15 -2.82,12.51 1.22,21.74 -2.56,-8.36 -1.95,-14.97 1.24,-17.88 2.34,-2.14 5.37,-2.28 9.05,0.8 -4.25,-5.08 -8.78,-7.14 -11.51,-4.66 z" /><path
         style="fill:#ececec"
         inkscape:connector-curvature="0"
         id="path2625"
         d="m 203.42,564.42 c -3.45,3.15 -3.65,11.31 0.39,20.54 -2.56,-8.37 -2.46,-15.96 0.73,-18.87 2.34,-2.15 5.88,-1.3 9.56,1.78 -4.26,-5.08 -7.96,-5.94 -10.68,-3.45 z" /><path
         style="fill:#a2ae98"
         inkscape:connector-curvature="0"
         id="path2627"
         d="m 228.61,606.3 c 2.31,-5.1 -0.56,-16.59 -5.38,-25.2 3.47,8.3 4.63,16.93 2.49,21.64 -1.58,3.47 -4.61,4.09 -8.14,2.26 4.32,3.83 9.2,5.33 11.03,1.3 z" /><path
         style="fill:#ececec"
         inkscape:connector-curvature="0"
         id="path2629"
         d="m 224.32,602.8 c 2.98,-4.02 1.73,-13.84 -2.68,-22.86 2.98,8.39 3.29,15.5 0.54,19.21 -2.02,2.74 -5.23,3.5 -8.87,0.95 4.31,4.57 8.66,5.88 11.01,2.7 z" /><g
         id="g3633"
         transform="matrix(0.9134,-0.24403,0.21007,0.78629,-32.955,180.35)"><path
           style="fill:#c4ccbe"
           inkscape:connector-curvature="0"
           id="path2443"
           transform="matrix(0.17954,0,0,0.17954,370.24,308.37)"
           d="m 551.43,460.93 a 200,200 0 1 1 -400,0 200,200 0 1 1 400,0 z" /><path
           style="fill:#a2ae98"
           inkscape:connector-curvature="0"
           id="path2445"
           d="m 428.71,358.82 c -16.58,2.42 -28.52,16.67 -28.52,32.95 3.78,-14.04 15.83,-23.42 31.13,-25.65 11.28,-1.65 21.87,0.11 29.85,7.05 -6.94,-10.27 -19.38,-16.27 -32.46,-14.35 z" /><path
           style="fill:#ececec"
           inkscape:connector-curvature="0"
           id="path2447"
           d="m 426.8,353.06 c -16.58,2.43 -29.54,14.38 -29.53,30.65 3.77,-14.04 15.56,-25.21 30.86,-27.45 11.28,-1.65 22.12,1.9 30.11,8.84 -6.95,-10.27 -18.36,-13.95 -31.44,-12.04 z" /><path
           style="fill:#a2ae98"
           inkscape:connector-curvature="0"
           id="path2449"
           d="m 450.24,431.38 c 15.62,-6.06 23.06,-24.92 19.44,-40.79 -0.56,14.53 -9.57,28.05 -23.99,33.63 -10.63,4.12 -21.99,3.07 -31.32,-1.92 9.06,8.47 23.54,13.85 35.87,9.08 z" /><path
           style="fill:#ececec"
           inkscape:connector-curvature="0"
           id="path2451"
           d="m 440.8,423.42 c 16.26,-4.02 26.76,-19.37 25.18,-35.57 -2.4,14.34 -12.03,25.07 -27.04,28.78 -11.06,2.73 -23.23,1.78 -31.85,-4.35 7.91,9.55 20.87,14.31 33.71,11.14 z" /><g
           id="g2530"
           transform="matrix(0.10015,0,0,0.10015,386.4,347.37)"><path
             style="fill:#a2ae98"
             inkscape:connector-curvature="0"
             id="path2534"
             d="m 329.56,392.23 c -32.32,4.72 -55.59,32.51 -55.59,64.23 7.37,-27.37 30.86,-45.64 60.68,-50 21.99,-3.21 42.63,0.22 58.19,13.76 -13.54,-20.04 -37.77,-31.72 -63.28,-27.99 z" /><path
             style="fill:#ececec"
             inkscape:connector-curvature="0"
             id="path2536"
             d="m 325.84,381.01 c -32.32,4.73 -57.58,28.03 -57.57,59.75 7.36,-27.37 30.34,-49.15 60.16,-53.51 21.99,-3.22 43.13,3.7 58.7,17.24 -13.55,-20.03 -35.78,-27.21 -61.29,-23.48 z" /><path
             style="fill:#a2ae98"
             inkscape:connector-curvature="0"
             id="path2538"
             d="m 371.54,533.68 c 30.45,-11.8 44.95,-48.58 37.88,-79.51 -1.09,28.33 -18.65,54.68 -46.75,65.56 -20.72,8.03 -42.88,5.98 -61.06,-3.75 17.66,16.52 45.89,27.01 69.93,17.7 z" /><path
             style="fill:#ececec"
             inkscape:connector-curvature="0"
             id="path2540"
             d="m 353.12,518.16 c 31.71,-7.83 52.17,-37.75 49.09,-69.33 -4.68,27.96 -23.44,48.86 -52.69,56.09 -21.58,5.33 -45.3,3.49 -62.1,-8.47 15.42,18.62 40.67,27.9 65.7,21.71 z" /></g><g
           id="g3535"
           transform="matrix(0.072158,0,0,0.072158,413.73,346.21)"><path
             style="fill:#a2ae98"
             inkscape:connector-curvature="0"
             id="path3539"
             d="m 329.56,392.23 c -32.32,4.72 -55.59,32.51 -55.59,64.23 7.37,-27.37 30.86,-45.64 60.68,-50 21.99,-3.21 42.63,0.22 58.19,13.76 -13.54,-20.04 -37.77,-31.72 -63.28,-27.99 z" /><path
             style="fill:#ececec"
             inkscape:connector-curvature="0"
             id="path3541"
             d="m 325.84,381.01 c -32.32,4.73 -57.58,28.03 -57.57,59.75 7.36,-27.37 30.34,-49.15 60.16,-53.51 21.99,-3.22 43.13,3.7 58.7,17.24 -13.55,-20.03 -35.78,-27.21 -61.29,-23.48 z" /><path
             style="fill:#a2ae98"
             inkscape:connector-curvature="0"
             id="path3543"
             d="m 371.54,533.68 c 30.45,-11.8 44.95,-48.58 37.88,-79.51 -1.09,28.33 -18.65,54.68 -46.75,65.56 -20.72,8.03 -42.88,5.98 -61.06,-3.75 17.66,16.52 45.89,27.01 69.93,17.7 z" /><path
             style="fill:#ececec"
             inkscape:connector-curvature="0"
             id="path3545"
             d="m 353.12,518.16 c 31.71,-7.83 52.17,-37.75 49.09,-69.33 -4.68,27.96 -23.44,48.86 -52.69,56.09 -21.58,5.33 -45.3,3.49 -62.1,-8.47 15.42,18.62 40.67,27.9 65.7,21.71 z" /></g></g><path
         style="fill:#c4ccbe"
         inkscape:connector-curvature="0"
         id="path3289"
         transform="matrix(0.079762,0,0,0.073759,275.26,400.9)"
         d="m 551.43,460.93 a 200,200 0 1 1 -400,0 200,200 0 1 1 400,0 z" /><path
         style="fill:#a2ae98"
         inkscape:connector-curvature="0"
         id="path3291"
         d="m 301.23,421.62 c -7.36,1 -12.66,6.85 -12.66,13.54 1.68,-5.77 7.03,-9.62 13.82,-10.54 5.02,-0.68 9.72,0.05 13.27,2.9 -3.09,-4.22 -8.61,-6.68 -14.43,-5.9 z" /><path
         style="fill:#ececec"
         inkscape:connector-curvature="0"
         id="path3293"
         d="m 300.39,419.26 c -7.37,0.99 -13.13,5.9 -13.12,12.59 1.68,-5.77 6.91,-10.36 13.71,-11.28 5.01,-0.68 9.83,0.78 13.37,3.63 -3.08,-4.22 -8.15,-5.73 -13.96,-4.94 z" /><path
         style="fill:#a2ae98"
         inkscape:connector-curvature="0"
         id="path3295"
         d="m 310.8,451.43 c 6.94,-2.49 10.25,-10.24 8.64,-16.75 -0.25,5.96 -4.26,11.52 -10.66,13.81 -4.72,1.69 -9.77,1.26 -13.91,-0.79 4.02,3.48 10.45,5.69 15.93,3.73 z" /><path
         style="fill:#ececec"
         inkscape:connector-curvature="0"
         id="path3297"
         d="m 306.61,448.16 c 7.22,-1.65 11.88,-7.96 11.18,-14.61 -1.06,5.89 -5.34,10.3 -12.01,11.82 -4.91,1.12 -10.32,0.73 -14.15,-1.79 3.52,3.93 9.27,5.88 14.98,4.58 z" /><g
         id="g3356"
         transform="matrix(0.3876,0,0,0.3876,251.07,351.95)"><path
           style="fill:#c4ccbe"
           inkscape:connector-curvature="0"
           id="path3358"
           transform="matrix(0.13119,0,0,0.13119,265.51,542.98)"
           d="m 551.43,460.93 a 200,200 0 1 1 -400,0 200,200 0 1 1 400,0 z" /><path
           style="fill:#a2ae98"
           inkscape:connector-curvature="0"
           id="path3360"
           d="m 308.24,579.84 c -12.11,1.77 -20.84,12.18 -20.83,24.08 2.76,-10.26 11.56,-17.11 22.74,-18.75 8.24,-1.2 15.98,0.09 21.81,5.16 -5.07,-7.51 -14.16,-11.89 -23.72,-10.49 z" /><path
           style="fill:#ececec"
           inkscape:connector-curvature="0"
           id="path3362"
           d="m 306.85,575.63 c -12.12,1.78 -21.59,10.51 -21.58,22.4 2.76,-10.26 11.37,-18.42 22.55,-20.06 8.24,-1.21 16.16,1.39 22,6.46 -5.08,-7.5 -13.41,-10.19 -22.97,-8.8 z" /><path
           style="fill:#a2ae98"
           inkscape:connector-curvature="0"
           id="path3364"
           d="m 323.98,632.86 c 11.41,-4.43 16.84,-18.21 14.2,-29.8 -0.41,10.61 -6.99,20.49 -17.53,24.57 -7.76,3.01 -16.07,2.24 -22.89,-1.41 6.62,6.2 17.2,10.13 26.22,6.64 z" /><path
           style="fill:#ececec"
           inkscape:connector-curvature="0"
           id="path3366"
           d="m 317.07,627.04 c 11.89,-2.93 19.56,-14.15 18.4,-25.98 -1.75,10.47 -8.78,18.31 -19.75,21.02 -8.09,2 -16.98,1.31 -23.27,-3.18 5.78,6.98 15.24,10.46 24.62,8.14 z" /></g><g
         id="g3368"
         transform="matrix(0.2952,0,0,0.2952,212.02,418.68)"><path
           style="fill:#c4ccbe"
           inkscape:connector-curvature="0"
           id="path3370"
           transform="matrix(0.13119,0,0,0.13119,265.51,542.98)"
           d="m 551.43,460.93 a 200,200 0 1 1 -400,0 200,200 0 1 1 400,0 z" /><path
           style="fill:#a2ae98"
           inkscape:connector-curvature="0"
           id="path3372"
           d="m 308.24,579.84 c -12.11,1.77 -20.84,12.18 -20.83,24.08 2.76,-10.26 11.56,-17.11 22.74,-18.75 8.24,-1.2 15.98,0.09 21.81,5.16 -5.07,-7.51 -14.16,-11.89 -23.72,-10.49 z" /><path
           style="fill:#ececec"
           inkscape:connector-curvature="0"
           id="path3374"
           d="m 306.85,575.63 c -12.12,1.78 -21.59,10.51 -21.58,22.4 2.76,-10.26 11.37,-18.42 22.55,-20.06 8.24,-1.21 16.16,1.39 22,6.46 -5.08,-7.5 -13.41,-10.19 -22.97,-8.8 z" /><path
           style="fill:#a2ae98"
           inkscape:connector-curvature="0"
           id="path3376"
           d="m 323.98,632.86 c 11.41,-4.43 16.84,-18.21 14.2,-29.8 -0.41,10.61 -6.99,20.49 -17.53,24.57 -7.76,3.01 -16.07,2.24 -22.89,-1.41 6.62,6.2 17.2,10.13 26.22,6.64 z" /><path
           style="fill:#ececec"
           inkscape:connector-curvature="0"
           id="path3378"
           d="m 317.07,627.04 c 11.89,-2.93 19.56,-14.15 18.4,-25.98 -1.75,10.47 -8.78,18.31 -19.75,21.02 -8.09,2 -16.98,1.31 -23.27,-3.18 5.78,6.98 15.24,10.46 24.62,8.14 z" /></g><g
         id="g3380"
         transform="matrix(0.2292,0,0,0.2292,275.39,444.62)"><path
           style="fill:#c4ccbe"
           inkscape:connector-curvature="0"
           id="path3382"
           transform="matrix(0.13119,0,0,0.13119,265.51,542.98)"
           d="m 551.43,460.93 a 200,200 0 1 1 -400,0 200,200 0 1 1 400,0 z" /><path
           style="fill:#a2ae98"
           inkscape:connector-curvature="0"
           id="path3384"
           d="m 308.24,579.84 c -12.11,1.77 -20.84,12.18 -20.83,24.08 2.76,-10.26 11.56,-17.11 22.74,-18.75 8.24,-1.2 15.98,0.09 21.81,5.16 -5.07,-7.51 -14.16,-11.89 -23.72,-10.49 z" /><path
           style="fill:#ececec"
           inkscape:connector-curvature="0"
           id="path3386"
           d="m 306.85,575.63 c -12.12,1.78 -21.59,10.51 -21.58,22.4 2.76,-10.26 11.37,-18.42 22.55,-20.06 8.24,-1.21 16.16,1.39 22,6.46 -5.08,-7.5 -13.41,-10.19 -22.97,-8.8 z" /><path
           style="fill:#a2ae98"
           inkscape:connector-curvature="0"
           id="path3388"
           d="m 323.98,632.86 c 11.41,-4.43 16.84,-18.21 14.2,-29.8 -0.41,10.61 -6.99,20.49 -17.53,24.57 -7.76,3.01 -16.07,2.24 -22.89,-1.41 6.62,6.2 17.2,10.13 26.22,6.64 z" /><path
           style="fill:#ececec"
           inkscape:connector-curvature="0"
           id="path3390"
           d="m 317.07,627.04 c 11.89,-2.93 19.56,-14.15 18.4,-25.98 -1.75,10.47 -8.78,18.31 -19.75,21.02 -8.09,2 -16.98,1.31 -23.27,-3.18 5.78,6.98 15.24,10.46 24.62,8.14 z" /></g><g
         id="g3394"
         transform="matrix(0.47889,-0.14303,0.11382,0.38109,228.17,414.01)"><path
           style="fill:#c4ccbe"
           inkscape:connector-curvature="0"
           id="path3396"
           transform="matrix(0.13119,0,0,0.13119,265.51,542.98)"
           d="m 551.43,460.93 a 200,200 0 1 1 -400,0 200,200 0 1 1 400,0 z" /><path
           style="fill:#a2ae98"
           inkscape:connector-curvature="0"
           id="path3398"
           d="m 308.24,579.84 c -12.11,1.77 -20.84,12.18 -20.83,24.08 2.76,-10.26 11.56,-17.11 22.74,-18.75 8.24,-1.2 15.98,0.09 21.81,5.16 -5.07,-7.51 -14.16,-11.89 -23.72,-10.49 z" /><path
           style="fill:#ececec"
           inkscape:connector-curvature="0"
           id="path3400"
           d="m 306.85,575.63 c -12.12,1.78 -21.59,10.51 -21.58,22.4 2.76,-10.26 11.37,-18.42 22.55,-20.06 8.24,-1.21 16.16,1.39 22,6.46 -5.08,-7.5 -13.41,-10.19 -22.97,-8.8 z" /><path
           style="fill:#a2ae98"
           inkscape:connector-curvature="0"
           id="path3402"
           d="m 323.98,632.86 c 11.41,-4.43 16.84,-18.21 14.2,-29.8 -0.41,10.61 -6.99,20.49 -17.53,24.57 -7.76,3.01 -16.07,2.24 -22.89,-1.41 6.62,6.2 17.2,10.13 26.22,6.64 z" /><path
           style="fill:#ececec"
           inkscape:connector-curvature="0"
           id="path3404"
           d="m 317.07,627.04 c 11.89,-2.93 19.56,-14.15 18.4,-25.98 -1.75,10.47 -8.78,18.31 -19.75,21.02 -8.09,2 -16.98,1.31 -23.27,-3.18 5.78,6.98 15.24,10.46 24.62,8.14 z" /></g><g
         id="g3406"
         transform="matrix(0.48375,0,0,0.61575,358.14,66.551)"><path
           style="fill:#c4ccbe"
           inkscape:connector-curvature="0"
           id="path3408"
           transform="matrix(0.13119,0,0,0.13119,265.51,542.98)"
           d="m 551.43,460.93 a 200,200 0 1 1 -400,0 200,200 0 1 1 400,0 z" /><path
           style="fill:#a2ae98"
           inkscape:connector-curvature="0"
           id="path3410"
           d="m 308.24,579.84 c -12.11,1.77 -20.84,12.18 -20.83,24.08 2.76,-10.26 11.56,-17.11 22.74,-18.75 8.24,-1.2 15.98,0.09 21.81,5.16 -5.07,-7.51 -14.16,-11.89 -23.72,-10.49 z" /><path
           style="fill:#ececec"
           inkscape:connector-curvature="0"
           id="path3412"
           d="m 306.85,575.63 c -12.12,1.78 -21.59,10.51 -21.58,22.4 2.76,-10.26 11.37,-18.42 22.55,-20.06 8.24,-1.21 16.16,1.39 22,6.46 -5.08,-7.5 -13.41,-10.19 -22.97,-8.8 z" /><path
           style="fill:#a2ae98"
           inkscape:connector-curvature="0"
           id="path3414"
           d="m 323.98,632.86 c 11.41,-4.43 16.84,-18.21 14.2,-29.8 -0.41,10.61 -6.99,20.49 -17.53,24.57 -7.76,3.01 -16.07,2.24 -22.89,-1.41 6.62,6.2 17.2,10.13 26.22,6.64 z" /><path
           style="fill:#ececec"
           inkscape:connector-curvature="0"
           id="path3416"
           d="m 317.07,627.04 c 11.89,-2.93 19.56,-14.15 18.4,-25.98 -1.75,10.47 -8.78,18.31 -19.75,21.02 -8.09,2 -16.98,1.31 -23.27,-3.18 5.78,6.98 15.24,10.46 24.62,8.14 z" /></g><path
         style="fill:#a2ae98"
         inkscape:connector-curvature="0"
         id="path3425"
         d="m 346.04,466.25 c -6.11,4.22 -8.18,11.85 -5.15,17.81 -1.12,-5.91 1.91,-11.77 7.55,-15.67 4.16,-2.87 8.68,-4.36 13.13,-3.43 -4.66,-2.36 -10.7,-2.05 -15.53,1.29 z" /><path
         style="fill:#ececec"
         inkscape:connector-curvature="0"
         id="path3427"
         d="m 346.79,462.58 c -6.85,2.87 -11.14,9.11 -9.4,15.57 0.12,-6.01 3.99,-11.8 10.31,-14.45 4.67,-1.96 9.7,-1.8 13.87,0.03 -4.08,-3.27 -9.37,-3.42 -14.78,-1.15 z" /></g><flowRoot
       xml:space="preserve"
       id="flowRoot3035"
       style="font-size:40px;font-style:normal;font-weight:normal;line-height:125%;letter-spacing:0px;word-spacing:0px;fill:#000000;fill-opacity:1;stroke:none;font-family:Sans"><flowRegion
         id="flowRegion3037"><rect
           id="rect3039"
           width="846.39423"
           height="419.86487"
           x="4085.3518"
           y="4028.8284" /></flowRegion><flowPara
         id="flowPara3041" /></flowRoot><text
       xml:space="preserve"
       style="font-size:40px;font-style:normal;font-weight:normal;line-height:125%;letter-spacing:0px;word-spacing:0px;fill:#000000;fill-opacity:1;stroke:none;font-family:Sans"
       x="3985.3838"
       y="3922.196"
       id="text3117"
       sodipodi:linespacing="125%"><tspan
         sodipodi:role="line"
         id="tspan3119"
         x="3985.3838"
         y="3922.196" /></text>
</g></svg>