<?xml version="1.0" encoding="UTF-8" standalone="no"?>
<svg
   xmlns:dc="http://purl.org/dc/elements/1.1/"
   xmlns:cc="http://creativecommons.org/ns#"
   xmlns:rdf="http://www.w3.org/1999/02/22-rdf-syntax-ns#"
   xmlns:svg="http://www.w3.org/2000/svg"
   xmlns="http://www.w3.org/2000/svg"
   xmlns:sodipodi="http://sodipodi.sourceforge.net/DTD/sodipodi-0.dtd"
   xmlns:inkscape="http://www.inkscape.org/namespaces/inkscape"
   style="shape-rendering:geometricPrecision;text-rendering:geometricPrecision;image-rendering:optimizeQuality"
   fill-rule="evenodd"
   xml:space="preserve"
   version="1.1"
   clip-rule="evenodd"
   viewBox="0 0 8769 8674"
   id="svg3100"
   inkscape:version="0.48.4 r9939"
   width="100%"
   height="100%"
   sodipodi:docname="ticket_black.svg"><sodipodi:namedview
     pagecolor="#ffffff"
     bordercolor="#666666"
     borderopacity="1"
     objecttolerance="10"
     gridtolerance="10"
     guidetolerance="10"
     inkscape:pageopacity="0"
     inkscape:pageshadow="2"
     inkscape:window-width="983"
     inkscape:window-height="576"
     id="namedview3175"
     showgrid="false"
     inkscape:zoom="0.16794594"
     inkscape:cx="4145.8138"
     inkscape:cy="5138.0568"
     inkscape:window-x="41"
     inkscape:window-y="24"
     inkscape:window-maximized="1"
     inkscape:current-layer="layer2"
     showguides="true"
     inkscape:guide-bbox="true"><sodipodi:guide
       orientation="0,1"
       position="7755.952,4033.556"
       id="guide3476" /><sodipodi:guide
       orientation="0,1"
       position="4858.4361,5591.5334"
       id="guide3515" /><sodipodi:guide
       orientation="0,1"
       position="5204.9912,4498.5519"
       id="guide3517" /><sodipodi:guide
       orientation="0,1"
       position="5418.2559,5151.675"
       id="guide3519" /><sodipodi:guide
       orientation="0,1"
       position="5371.6042,5891.4369"
       id="guide3521" /><sodipodi:guide
       orientation="1,0"
       position="3132.325,4385.2551"
       id="guide4450" /><sodipodi:guide
       orientation="1,0"
       position="5318.2881,4225.3065"
       id="guide4452" /></sodipodi:namedview><defs
     id="defs3102"><style
       type="text/css"
       id="style3104">
    .fil1 {fill:none}
    .fil6 {fill:#AE7274}
    .fil5 {fill:#B37D72}
    .fil11 {fill:#BA7728}
    .fil2 {fill:#D4989A}
    .fil8 {fill:#EBC05B}
    .fil0 {fill:#F5F2F2}
    .fil7 {fill:#6E392E;fill-rule:nonzero}
    .fil9 {fill:#73452A;fill-rule:nonzero}
    .fil12 {fill:#82522A;fill-rule:nonzero}
    .fil3 {fill:#945F54;fill-rule:nonzero}
    .fil4 {fill:#B37D72;fill-rule:nonzero}
    .fil10 {fill:#BA7728;fill-rule:nonzero}
  </style></defs><metadata
     id="metadata3173"><rdf:RDF><cc:Work><dc:format>image/svg+xml</dc:format><dc:type
           rdf:resource="http://purl.org/dc/dcmitype/StillImage" /><cc:license
           rdf:resource="http://creativecommons.org/licenses/publicdomain/" /><dc:publisher><cc:Agent
             rdf:about="http://openclipart.org/"><dc:title>Openclipart</dc:title></cc:Agent></dc:publisher><dc:title /><dc:date>2013-09-12T23:54:41</dc:date><dc:description>Simple Tickets</dc:description><dc:source>http://openclipart.org/detail/183401/event-tickets-by-barrettward-183401</dc:source><dc:creator><cc:Agent><dc:title>barrettward</dc:title></cc:Agent></dc:creator><dc:subject><rdf:Bag><rdf:li>admit</rdf:li><rdf:li>admit one</rdf:li><rdf:li>event</rdf:li><rdf:li>event tickets</rdf:li><rdf:li>movie</rdf:li><rdf:li>movie tickets</rdf:li><rdf:li>ticket</rdf:li><rdf:li>tickets</rdf:li></rdf:Bag></dc:subject></cc:Work><cc:License
         rdf:about="http://creativecommons.org/licenses/publicdomain/"><cc:permits
           rdf:resource="http://creativecommons.org/ns#Reproduction" /><cc:permits
           rdf:resource="http://creativecommons.org/ns#Distribution" /><cc:permits
           rdf:resource="http://creativecommons.org/ns#DerivativeWorks" /></cc:License></rdf:RDF></metadata><g
     inkscape:groupmode="layer"
     id="layer2"
     inkscape:label="Trabajo"
     style="display:inline"><polygon
       style="fill:none"
       id="polygon3109"
       class="fil1"
       points="0,8674 0,0 8769,0 8769,8674 " /><path
       style="fill:#28170b"
       inkscape:connector-curvature="0"
       id="path3145"
       d="m 1601.9213,2156.8986 5261.5291,1.5718 -0.01,82.6378 c -39.5581,-0.3902 -72.5116,31.8443 -71.9701,71.7656 -0.3902,39.5582 31.8444,72.5116 71.7656,71.9701 l -0.5884,100.6561 c -39.5582,-0.3902 -72.5117,31.8444 -71.9701,71.7656 -0.3903,39.5582 31.8443,72.5117 71.7656,71.9702 l -0.5885,100.6561 c -39.5581,-0.3903 -72.5116,31.8443 -71.9701,71.7656 -0.3902,39.5581 31.8444,72.5116 71.7656,71.9701 l -0.3349,108.2677 c -233.0533,0.4059 -422.6419,189.4697 -422.236,422.523 0.4059,233.0533 189.4698,422.642 422.523,422.2361 l -0.3349,108.2676 c -39.5581,-0.3902 -72.5116,31.8444 -71.9701,71.7656 -0.3902,39.5582 31.8444,72.5117 71.7656,71.9701 l -0.5884,100.6562 c -39.5582,-0.3903 -72.5117,31.8443 -71.9701,71.7656 -0.3903,39.5581 31.8443,72.5116 71.7656,71.9701 l -0.5885,100.6561 c -39.5581,-0.3902 -72.5116,31.8444 -71.9701,71.7656 -0.3902,39.5582 31.8444,72.5116 71.7656,71.9701 l -0.01,82.6378 -5261.5291,-1.5718 0.01,-82.6378 c 39.5582,0.3902 72.5116,-31.8444 71.9701,-71.7656 0.3902,-39.5582 -31.8444,-72.5116 -71.7656,-71.9701 l 0.5885,-100.6561 c 39.5581,0.3902 72.5116,-31.8444 71.9701,-71.7657 0.3902,-39.5581 -31.8444,-72.5116 -71.7657,-71.9701 l 0.5885,-100.6561 c 39.5582,0.3902 72.5116,-31.8443 71.9701,-71.7656 0.3902,-39.5582 -31.8443,-72.5116 -71.7656,-71.9701 l 0.3349,-108.2677 c 233.0533,-0.4059 422.6419,-189.4697 422.236,-422.523 -0.4059,-233.0533 -189.4697,-422.642 -422.523,-422.2361 l 0.3349,-108.2676 c 39.5582,0.3902 72.5116,-31.8444 71.9701,-71.7656 0.3902,-39.5582 -31.8444,-72.5117 -71.7656,-71.9702 l 0.5885,-100.6561 c 39.5581,0.3903 72.5116,-31.8443 71.9701,-71.7656 0.3902,-39.5581 -31.8444,-72.5116 -71.7657,-71.9701 l 0.5885,-100.6561 c 39.5582,0.3902 72.5116,-31.8444 71.9701,-71.7656 0.3902,-39.5582 -31.8443,-72.5117 -71.7656,-71.9701 l 0.01,-82.6378 z"
       class="fil8" /><path
       style="fill:#73452a;fill-rule:nonzero"
       inkscape:connector-curvature="0"
       id="path3147"
       d="m 2370.3406,2404.8337 450.8835,-0.3047 2824.1809,1.569 450.8834,-0.3048 c 34.5364,-0.4935 65.4896,13.7154 88.7218,36.7212 22.3005,22.6427 36.8798,54.0822 36.4416,88.2554 l -0.3984,1747.0947 c 0.4935,34.5363 -13.7154,65.4896 -36.7212,88.7218 -22.6426,22.3004 -54.0821,36.8797 -88.2553,36.4415 l -423.9588,0.065 -27.8565,-0.1232 -2824.1808,-1.5689 -27.8565,-0.1231 -423.9588,0.065 c -34.5363,0.4935 -65.4896,-13.7154 -88.7218,-36.7212 -22.3004,-22.6426 -36.8797,-54.0821 -36.4415,-88.2553 l 0.3984,-1747.0947 c -0.4936,-34.5363 13.7154,-65.4896 36.7211,-88.7218 22.6427,-22.3005 54.0822,-36.8798 88.2554,-36.4416 z m 3302.106,55.8055 -0.4453,1887.6721 423.9587,-0.065 c 19.3132,0.014 37.4411,-7.9476 49.773,-20.3139 12.6949,-13.298 20.5256,-30.6382 20.5391,-49.9514 l 0.3984,-1747.0946 c 0.014,-19.3133 -7.9475,-37.4412 -20.3138,-49.773 -13.298,-12.695 -30.6382,-20.5256 -49.9514,-20.5392 l -423.9587,0.065 z M 2792.676,4347.791 l 0.4454,-1887.6721 -423.9588,0.065 c -19.3132,-0.014 -37.4411,7.9476 -49.7729,20.3139 -12.695,13.298 -20.5257,30.6381 -20.5392,49.9513 l -0.3984,1747.0947 c -0.014,19.3132 7.9475,37.4412 20.3138,49.773 13.2981,12.695 30.6382,20.5256 49.9514,20.5392 l 423.9587,-0.065 z m 55.2266,-1887.789 -0.4453,1887.6721 2768.4679,1.3227 0.4453,-1887.6721 -2768.4679,-1.3227 z"
       class="fil9" /><path
       style="fill:#ba7728;fill-rule:nonzero"
       inkscape:connector-curvature="0"
       id="path3149"
       d="m 2496.2396,2883.196 c -0.4727,9.475 0.144,16.1548 1.8499,20.0394 1.3429,4.8163 3.4119,7.7691 5.8441,9.7901 3.9325,3.679 12.6814,6.0152 24.9517,7.5772 12.2703,1.5619 28.9938,2.7128 49.6018,2.1577 19.3132,0.014 35.8312,-1.0622 48.259,-2.6586 12.4279,-1.5964 20.7657,-3.7134 27.2399,-6.5567 3.8846,-1.7059 6.2687,-5.0698 6.7894,-9.1599 1.8155,-4.6588 2.4937,-11.9072 2.0346,-21.7454 -0.4591,-9.8381 -0.7127,-17.4497 -2.0555,-22.266 -1.3429,-4.8163 -3.4119,-7.7691 -7.1389,-9.2215 -6.1592,-3.4734 -14.908,-5.8096 -27.5414,-6.4398 -12.2703,-1.562 -28.0621,-2.3497 -47.3753,-2.3633 -17.0866,-0.2191 -31.3779,0.6511 -43.4427,1.3157 -12.0647,0.6647 -20.4025,2.7817 -25.945,5.9881 -5.1794,2.2746 -8.4953,5.2754 -9.9477,9.0024 -1.8155,4.6587 -2.4937,11.9072 -2.7608,23.6088 z m 81.9669,70.5792 c -23.7664,0.3976 -43.2852,-1.8426 -58.3507,-4.4938 -15.0656,-2.6513 -26.8152,-8.3034 -35.0434,-14.7296 -4.8643,-4.0421 -9.0024,-9.9477 -11.1195,-18.2855 -2.117,-8.3377 -3.1448,-19.4707 -3.0832,-33.399 0.062,-13.9282 1.2604,-25.2668 3.2335,-33.0839 2.3361,-8.7488 6.7413,-14.5449 11.7152,-19.0461 7.9266,-6.5702 19.2172,-10.7563 35.5296,-14.0587 15.3806,-3.6654 35.057,-4.5836 57.5285,-4.4125 22.4716,0.1711 42.3534,1.4795 57.9876,5.4257 15.9973,3.0143 28.1101,7.7346 35.4065,13.7978 4.8643,4.0421 9.0024,9.9477 12.0512,18.6485 2.117,8.3378 3.1448,19.4708 4.015,33.7621 -0.2671,11.7017 -1.1029,22.1085 -3.0759,29.9256 -1.9731,7.8171 -5.4466,13.9763 -9.4887,18.8405 -6.9949,6.9334 -18.6485,12.0512 -34.3923,16.6484 -16.3124,3.3024 -36.7149,6.0841 -62.3448,5.7554 z m 105.8428,61.6385 -0.1774,105.1093 -24.6981,0.034 -0.1513,-79.4794 -44.2169,-2.2057 c 0.5686,1.2948 -0.1576,3.1583 0.048,5.3849 0.2055,2.2266 0.048,5.385 -0.1096,8.5433 0.192,21.5398 -6.7069,39.2431 -18.4701,52.9042 -12.695,13.2981 -28.5963,21.0536 -48.8412,20.677 -23.7665,0.3975 -42.2439,-10.0229 -56.1586,-29.3976 -13.9147,-19.3748 -20.4714,-46.6147 -20.6018,-82.0827 l -0.2535,-7.6116 25.993,-0.6031 c -0.3631,0.9318 -0.1576,3.1584 -0.5207,4.0901 -0.3631,0.9318 -0.5206,4.0902 -0.3151,6.3168 0.034,24.6981 4.4741,43.6002 13.8876,58.0011 8.8448,13.1061 22.0949,20.4161 38.2497,20.2721 12.9965,-0.3015 22.4236,-5.2138 30.1447,-14.0107 6.7893,-9.1599 10.941,-22.5675 10.797,-38.7224 -0.4111,-4.4532 -0.8222,-8.9064 -0.5071,-15.2231 -0.9797,-5.748 -1.5964,-12.4278 -1.8499,-20.0394 l 97.1826,6.7476 z m -109.1431,213.9738 16.5524,23.6224 c 7.3445,11.4481 14.8465,19.7379 20.6425,24.1431 5.7961,4.4052 13.6132,6.3782 20.8616,7.0564 8.5433,0.1096 15.3807,-3.6654 21.0807,-10.0301 5.7001,-6.3647 8.968,-14.7505 8.872,-25.5204 -0.2535,-7.6115 -1.4388,-15.5862 -5.4194,-24.6501 -3.9805,-9.064 -9.4615,-19.7859 -18.3063,-32.8919 l 33.2414,0.075 c 5.2754,8.4953 8.3242,17.1961 11.373,25.897 2.6857,9.6326 3.1448,19.4708 3.2408,30.2407 0.192,21.5398 -5.049,37.7426 -15.1542,49.9034 -10.1053,12.1607 -24.3486,18.4158 -42.367,17.8336 -11.7017,-0.2671 -21.3823,-2.9663 -30.5422,-9.7557 -9.1599,-6.7893 -19.0941,-17.1002 -28.5076,-31.5011 l -12.6198,-19.9434 c -8.4818,-14.0378 -17.8473,-23.0537 -24.5751,-27.822 -7.6595,-5.1314 -16.4084,-7.4676 -25.8834,-7.9403 l -6.3167,-0.3151 0.09,93.4077 -25.6299,-0.3287 0.191,-124.4225 c 1.2948,-0.5686 3.5214,-0.7742 4.4532,-0.4111 2.2266,-0.2055 4.4532,-0.4111 7.6115,-0.2535 21.5398,-0.192 39.4006,3.5485 52.082,9.5637 12.6814,6.0152 25.4108,17.4153 35.3929,33.111 z m -64.1457,137.0632 c -4.5627,8.9544 -8.1937,18.2719 -10.5299,27.0208 -2.3361,8.7488 -3.7405,17.8608 -4.2132,27.3358 -0.4246,14.86 3.7614,26.1506 11.8321,35.7352 8.4337,8.6528 18.3199,13.5787 32.2481,13.6403 13.9283,0.061 23.3553,-4.8508 30.1447,-14.0107 5.8576,-9.5231 9.4406,-24.2255 9.8173,-44.4705 l -0.4111,-4.4532 -0.6167,-6.6798 21.5398,-0.192 57.3303,56.6855 -0.2473,-90.2493 25.6299,0.3286 0.015,126.6491 -28.7882,-0.4862 -53.9664,-54.3013 c -0.9453,18.9501 -6.7549,33.8581 -17.7919,45.6558 -10.6739,10.8659 -25.849,16.7579 -43.8674,16.1757 -21.5398,0.192 -37.9482,-7.2756 -50.52,-21.834 -12.5719,-14.5585 -18.5119,-35.1185 -18.5463,-59.8167 -0.2536,-7.6115 0.7877,-15.7918 2.1921,-24.9037 2.3362,-8.7489 4.6723,-17.4977 8.3033,-26.8152 l 30.0831,-0.082 z m -10.3504,213.8361 c 21.5398,-0.192 41.6272,3.343 60.2622,10.605 18.635,7.262 36.1807,17.3193 52.274,31.1036 l 18.5254,15.8053 c 8.2282,6.4262 14.0243,10.8314 17.3882,13.2156 3.3639,2.3842 6.1591,3.4735 8.3857,3.2679 l 0.9318,0.3631 0.3829,-102.8827 24.6982,-0.034 -0.2525,138.3507 -9.8382,0.4591 c -16.1548,0.144 -34.0636,-8.9815 -54.4526,-25.513 -2.4321,-2.0211 -3.9325,-3.679 -5.796,-4.4052 l -17.0251,-14.1474 c -14.5929,-12.1263 -29.3433,-21.0943 -44.6144,-25.9721 -14.908,-5.8096 -32.2002,-8.2553 -50.2185,-8.8375 l -28.7883,-0.4863 0.4863,-28.7882 26.9247,-0.24 z m 0.337,183.657 c 21.5399,-0.192 41.6273,3.343 60.2623,10.605 18.635,7.262 36.1806,17.3193 52.2739,31.1036 l 18.5255,15.8053 c 8.2282,6.4262 14.0242,10.8314 17.3881,13.2156 3.3639,2.3841 6.1592,3.4734 8.3858,3.2679 l 0.9317,0.3631 0.3829,-102.8827 24.6982,-0.035 -0.2525,138.3508 -9.8381,0.4591 c -16.1549,0.144 -34.0637,-8.9815 -54.4526,-25.513 -2.4322,-2.0211 -3.9326,-3.679 -5.7961,-4.4052 l -17.025,-14.1474 c -14.5929,-12.1263 -29.3434,-21.0943 -44.6145,-25.9721 -14.908,-5.8096 -32.2001,-8.2554 -50.2185,-8.8376 l -28.7882,-0.4862 0.4862,-28.7882 26.9247,-0.24 z m 149.6018,199.9683 -44.6489,-50.6703 37.6946,-0.336 40.9219,49.2179 0.288,32.3097 -210.2186,-0.3547 -0.083,-30.0831 176.9772,0.2796 z"
       class="fil10" /><path
       style="fill:#ba7728;fill-rule:nonzero"
       inkscape:connector-curvature="0"
       id="path3151"
       d="m 5968.5199,3926.166 c 0.4727,-9.4751 -0.144,-16.1549 -1.8499,-20.0394 -1.3429,-4.8163 -3.4119,-7.7691 -5.8441,-9.7902 -3.9325,-3.679 -12.6814,-6.0152 -24.9517,-7.5771 -12.2703,-1.562 -28.9938,-2.7128 -49.6018,-2.1577 -19.3132,-0.014 -35.8312,1.0621 -48.259,2.6585 -12.4279,1.5964 -20.7656,3.7135 -27.2399,6.5567 -3.8845,1.706 -6.2687,5.0699 -6.7893,9.16 -1.8155,4.6587 -2.4937,11.9072 -2.0347,21.7453 0.4591,9.8382 0.7127,17.4497 2.0555,22.266 1.3429,4.8163 3.4119,7.7691 7.1389,9.2215 6.1592,3.4735 14.908,5.8096 27.5414,6.4398 12.2703,1.562 28.0621,2.3498 47.3753,2.3633 17.0866,0.2191 31.3779,-0.6511 43.4427,-1.3157 12.0647,-0.6646 20.4025,-2.7817 25.945,-5.988 5.1794,-2.2746 8.4953,-5.2754 9.9477,-9.0024 1.8155,-4.6588 2.4937,-11.9072 2.7608,-23.6089 z m -81.9668,-70.5793 c 23.7664,-0.3975 43.2851,1.8426 58.3507,4.4939 15.0655,2.6512 26.8152,8.3033 35.0434,14.7296 4.8643,4.0421 9.0024,9.9477 11.1194,18.2854 2.117,8.3378 3.1448,19.4708 3.0832,33.399 -0.061,13.9283 -1.2604,25.2668 -3.2334,33.0839 -2.3362,8.7489 -6.7414,14.5449 -11.7153,19.0461 -7.9266,6.5703 -19.2172,10.7564 -35.5296,14.0587 -15.3806,3.6654 -35.0569,4.5836 -57.5285,4.4125 -22.4715,-0.1711 -42.3534,-1.4795 -57.9876,-5.4256 -15.9973,-3.0144 -28.11,-7.7347 -35.4065,-13.7978 -4.8643,-4.0421 -9.0024,-9.9477 -12.0512,-18.6486 -2.117,-8.3378 -3.1448,-19.4708 -4.015,-33.7621 0.2672,-11.7017 1.1029,-22.1085 3.076,-29.9256 1.973,-7.8171 5.4465,-13.9762 9.4886,-18.8405 6.9949,-6.9334 18.6485,-12.0512 34.3923,-16.6484 16.3124,-3.3023 36.7149,-6.084 62.3448,-5.7554 z m -105.8429,-61.6384 0.1774,-105.1093 24.6981,-0.034 0.1513,79.4794 44.217,2.2058 c -0.5687,-1.2949 0.1575,-3.1584 -0.048,-5.385 -0.2056,-2.2266 -0.048,-5.3849 0.1095,-8.5433 -0.192,-21.5398 6.7069,-39.243 18.4701,-52.9042 12.695,-13.298 28.5963,-21.0536 48.8413,-20.6769 23.7664,-0.3975 42.2438,10.0228 56.1585,29.3976 13.9147,19.3747 20.4714,46.6146 20.6018,82.0827 l 0.2536,7.6115 -25.993,0.6031 c 0.3631,-0.9318 0.1575,-3.1584 0.5206,-4.0901 0.3631,-0.9318 0.5207,-4.0901 0.3151,-6.3167 -0.034,-24.6982 -4.4741,-43.6003 -13.8876,-58.0012 -8.8448,-13.106 -22.0948,-20.416 -38.2497,-20.2721 -12.9965,0.3016 -22.4236,5.2139 -30.1447,14.0107 -6.7893,9.16 -10.941,22.5676 -10.797,38.7224 0.4111,4.4532 0.8222,8.9064 0.5071,15.2231 0.9797,5.7481 1.5964,12.4279 1.8499,20.0394 l -97.1826,-6.7476 z m 109.1431,-213.9738 -16.5524,-23.6225 c -7.3445,-11.4481 -14.8464,-19.7378 -20.6425,-24.143 -5.796,-4.4052 -13.6131,-6.3783 -20.8616,-7.0565 -8.5433,-0.1095 -15.3807,3.6655 -21.0807,10.0301 -5.7001,6.3647 -8.968,14.7505 -8.872,25.5204 0.2536,7.6115 1.4389,15.5862 5.4194,24.6502 3.9806,9.0639 9.4615,19.7858 18.3063,32.8919 l -33.2414,-0.075 c -5.2754,-8.4954 -8.3242,-17.1962 -11.373,-25.8971 -2.6857,-9.6326 -3.1448,-19.4707 -3.2408,-30.2406 -0.192,-21.5398 5.049,-37.7427 15.1543,-49.9034 10.1052,-12.1608 24.3486,-18.4159 42.3669,-17.8337 11.7017,0.2671 21.3823,2.9664 30.5422,9.7557 9.16,6.7894 19.0941,17.1002 28.5076,31.5011 l 12.6198,19.9434 c 8.4818,14.0378 17.8473,23.0538 24.5751,27.8221 7.6595,5.1314 16.4084,7.4675 25.8834,7.9402 l 6.3167,0.3151 -0.09,-93.4077 25.6299,0.3287 -0.1909,124.4225 c -1.2949,0.5687 -3.5215,0.7742 -5.385,0.048 -2.2266,0.2056 -4.4532,0.4111 -7.6115,0.2536 -21.5398,0.192 -39.4006,-3.5486 -52.082,-9.5638 -12.6814,-6.0151 -25.4108,-17.4152 -35.393,-33.111 z m 64.1457,-137.0633 c 4.5627,-8.9544 8.1937,-18.2719 10.5299,-27.0207 2.3362,-8.7489 3.7406,-17.8608 4.2132,-27.3359 0.4247,-14.86 -3.7614,-26.1505 -11.8321,-35.7351 -8.4337,-8.6529 -18.3199,-13.5788 -32.2481,-13.6403 -13.9283,-0.062 -23.3553,4.8507 -30.1447,14.0107 -5.8576,9.523 -9.4406,24.2255 -9.8173,44.4704 l 0.4111,4.4532 0.6167,6.6798 -21.5398,0.192 -57.3303,-56.6854 0.2473,90.2493 -25.6299,-0.3287 -0.015,-126.6491 28.7882,0.4862 53.9664,54.3013 c 0.9453,-18.9501 6.7549,-33.8581 17.7919,-45.6557 10.6739,-10.8659 25.8491,-16.758 43.8674,-16.1758 21.5398,-0.192 37.9482,7.2756 50.52,21.8341 12.5719,14.5584 18.5119,35.1185 18.5464,59.8166 0.2535,7.6116 -0.7878,15.7918 -2.1922,24.9037 -2.3362,8.7489 -4.6723,17.4977 -8.3033,26.8152 l -30.0831,0.082 z m 10.3504,-213.8361 c -21.5398,0.192 -41.6272,-3.343 -60.2622,-10.605 -18.635,-7.262 -36.1807,-17.3193 -52.274,-31.1035 l -18.5254,-15.8053 c -8.2282,-6.4263 -14.0243,-10.8315 -17.3882,-13.2157 -3.3639,-2.3841 -6.1591,-3.4734 -8.3857,-3.2679 l -0.9318,-0.3631 -0.3829,102.8827 -24.6981,0.035 0.2524,-138.3508 9.8382,-0.4591 c 16.1549,-0.144 34.0637,8.9815 54.4526,25.5131 2.4321,2.021 3.9325,3.679 5.796,4.4052 l 17.0251,14.1473 c 14.5929,12.1263 29.3433,21.0943 44.6144,25.9722 14.908,5.8096 32.2002,8.2553 50.2185,8.8375 l 28.7883,0.4862 -0.4862,28.7883 -26.9248,0.2399 z m -0.337,-183.6569 c -21.5398,0.1919 -41.6272,-3.3431 -60.2622,-10.6051 -18.635,-7.262 -36.1807,-17.3193 -52.274,-31.1035 l -18.5255,-15.8053 c -8.2282,-6.4263 -14.0242,-10.8315 -17.3881,-13.2156 -3.3639,-2.3842 -6.1592,-3.4735 -8.3858,-3.2679 l -0.9317,-0.3631 -0.3829,102.8827 -24.6982,0.034 0.2525,-138.3508 9.8382,-0.4591 c 16.1548,-0.144 34.0636,8.9816 54.4526,25.5131 2.4321,2.021 3.9325,3.679 5.796,4.4052 l 17.0251,14.1473 c 14.5928,12.1264 29.3433,21.0943 44.6144,25.9722 14.908,5.8096 32.2001,8.2553 50.2185,8.8375 l 28.7882,0.4862 -0.4862,28.7883 -26.9247,0.24 z m -149.6017,-199.9684 44.6489,50.6703 -37.6947,0.336 -40.9219,-49.2179 -0.288,-32.3097 210.2187,0.3547 0.082,30.0831 -176.9772,-0.2796 z"
       class="fil10" /><path
       style="fill:#ba7728"
       inkscape:connector-curvature="0"
       id="path3153"
       d="m 3211.5909,3198.4571 21.184,64.0643 67.7777,-0.4184 -55.1714,39.675 21.184,64.0643 -54.3911,-39.4413 -54.2397,40.0382 20.6007,-63.8797 -54.391,-39.4413 67.4147,0.5134 20.6007,-63.8797 z m 291.9246,0 21.184,64.0643 67.7778,-0.4184 -55.1715,39.675 21.184,64.0643 -54.391,-39.4413 -54.2397,40.0382 20.6007,-63.8797 -54.391,-39.4413 67.4146,0.5134 20.6008,-63.8797 z m 291.9247,0 21.184,64.0644 67.7777,-0.4184 -55.1714,39.675 21.184,64.0643 -54.3911,-39.4413 -54.2397,40.0381 20.6007,-63.8796 -54.391,-39.4413 67.4147,0.5133 20.6007,-63.8796 z m 291.9246,0 21.184,64.0643 67.7778,-0.4184 -55.1715,39.6751 21.184,64.0643 -54.391,-39.4413 -54.2397,40.0381 20.6007,-63.8796 -54.391,-39.4413 67.4146,0.5133 20.6008,-63.8796 z m 291.9247,0 21.184,64.0643 67.7777,-0.4184 -55.1714,39.675 21.184,64.0644 -54.3911,-39.4413 -54.2397,40.0381 20.6007,-63.8797 -54.391,-39.4412 67.4147,0.5133 20.6007,-63.8796 z m 291.9246,0 21.184,64.0643 67.7778,-0.4184 -55.1715,39.675 21.184,64.0643 -54.391,-39.4412 -54.2397,40.0381 20.6007,-63.8797 -54.391,-39.4413 67.4146,0.5134 20.6008,-63.8797 z m 291.9247,0 21.184,64.0643 67.7777,-0.4184 -55.1714,39.675 21.184,64.0643 -54.3911,-39.4413 -54.2397,40.0382 20.6007,-63.8797 -54.391,-39.4413 67.4147,0.5134 20.6007,-63.8797 z m 291.9246,0 21.184,64.0644 67.7778,-0.4184 -55.1715,39.675 21.184,64.0643 -54.391,-39.4413 -54.2398,40.0381 20.6008,-63.8796 -54.391,-39.4413 67.4146,0.5133 20.6008,-63.8796 z"
       class="fil11" /><text
       xml:space="preserve"
       style="font-size:256px;font-style:normal;font-variant:normal;font-weight:normal;font-stretch:normal;text-align:center;line-height:125%;letter-spacing:0px;word-spacing:0px;writing-mode:lr-tb;text-anchor:middle;fill:#82522a;fill-opacity:1;stroke:none;font-family:Sans;-inkscape-font-specification:Sans"
       x="4210.9575"
       y="3057.1697"
       id="text3511"
       sodipodi:linespacing="125%"><tspan
         sodipodi:role="line"
         id="tspan3513"
         x="4210.9575"
         y="3057.1697"
         style="font-size:256px;font-style:normal;font-variant:normal;font-weight:bold;font-stretch:normal;text-align:center;line-height:125%;writing-mode:lr-tb;text-anchor:middle;fill:#82522a;font-family:Sans;-inkscape-font-specification:Sans Bold">S<tspan
   style="font-size:192px;font-weight:bold;-inkscape-font-specification:Sans Bold"
   id="tspan3039">PANISH </tspan>M<tspan
   style="font-size:192px;font-weight:bold;-inkscape-font-specification:Sans Bold"
   id="tspan3041">AIN </tspan>E<tspan
   style="font-size:192px;font-weight:bold;-inkscape-font-specification:Sans Bold"
   id="tspan3045">VENT</tspan></tspan></text>
<flowRoot
       xml:space="preserve"
       id="flowRoot4454"
       style="font-size:128px;font-style:normal;font-weight:normal;line-height:125%;letter-spacing:0px;word-spacing:0px;fill:#82522a;fill-opacity:1;stroke:none;font-family:Sans"><flowRegion
         id="flowRegion4456"><rect
           id="rect4458"
           width="2172.634"
           height="933.03308"
           x="3145.6541"
           y="3515.6604"
           style="fill:#82522a;font-size:128px" /></flowRegion><flowPara
         id="flowPara4460"
         style="font-weight:bold;fill:#82522a;-inkscape-font-specification:Sans Bold;font-size:128px">Hugo Vila</flowPara><flowPara
         style="font-size:128px;font-weight:normal;fill:#82522a;-inkscape-font-specification:Sans"
         id="flowPara3029"></flowPara><flowPara
         style="font-size:128px;font-weight:normal;fill:#82522a;-inkscape-font-specification:Sans"
         id="flowPara3053">Valencia - Spain</flowPara><flowPara
         style="font-size:128px;font-weight:normal;fill:#82522a;-inkscape-font-specification:Sans"
         id="flowPara3031">30/07/2014 - 22:30 H.</flowPara><flowPara
         style="font-size:128px;font-weight:normal;fill:#82522a;-inkscape-font-specification:Sans"
         id="flowPara3037">Palace Auditorium</flowPara><flowPara
         style="font-size:128px;font-weight:bold;fill:#82522a;-inkscape-font-specification:Sans Bold"
         id="flowPara3033" /><flowPara
         style="font-weight:bold;fill:#82522a;-inkscape-font-specification:Sans Bold;font-size:128px"
         id="flowPara3043" /></flowRoot><flowRoot
       xml:space="preserve"
       id="flowRoot3035"
       style="fill:black;stroke:none;stroke-opacity:1;stroke-width:1px;stroke-linejoin:miter;stroke-linecap:butt;fill-opacity:1;font-family:Sans;font-style:normal;font-weight:normal;font-size:40px;line-height:125%;letter-spacing:0px;word-spacing:0px"><flowRegion
         id="flowRegion3037"><rect
           id="rect3039"
           width="846.39423"
           height="419.86487"
           x="4085.3518"
           y="4028.8284" /></flowRegion><flowPara
         id="flowPara3041" /></flowRoot><text
       xml:space="preserve"
       style="font-size:40px;font-style:normal;font-weight:normal;line-height:125%;letter-spacing:0px;word-spacing:0px;fill:#000000;fill-opacity:1;stroke:none;font-family:Sans"
       x="3985.3838"
       y="3922.196"
       id="text3117"
       sodipodi:linespacing="125%"><tspan
         sodipodi:role="line"
         id="tspan3119"
         x="3985.3838"
         y="3922.196" /></text>
</g><g
     inkscape:groupmode="layer"
     id="layer1"
     inkscape:label="Elementos originales"
     style="display:none"
     sodipodi:insensitive="true"><g
       transform="translate(0,2.231809e-5)"
       style="display:inline"
       id="g4398"><path
         class="fil12"
         d="m 5198.2256,3030.3308 c 0.144,16.1548 -5.8712,28.8362 -17.8399,40.2708 -11.6057,10.5028 -25.4859,15.8262 -41.6408,15.9702 l -33.2414,-0.075 c -16.1549,0.144 -29.1994,-4.9394 -40.997,-15.9764 -10.8659,-10.6739 -17.4842,-23.9855 -17.9913,-39.2086 l 45.2102,-11.3594 0.4591,9.8381 c -0.5206,4.0901 1.1853,7.9747 4.1861,11.2906 3.0008,3.3159 5.433,5.3369 9.8862,4.9258 l 33.2414,0.075 c 4.0901,0.5207 7.0429,-1.5483 10.3588,-4.5491 2.3842,-3.3639 3.8366,-7.0909 4.3572,-11.181 l 0.2192,-17.0866 c 0.4726,-9.4751 -3.3024,-16.3125 -10.7564,-19.2173 l -61.701,-26.1912 c -22.9307,-10.0093 -33.8446,-26.0681 -33.6734,-48.5397 l 0.3766,-20.2449 c -0.144,-16.1549 5.8712,-28.8363 17.4768,-39.3391 11.6057,-10.5028 25.486,-15.8262 41.6408,-15.9702 l 33.2415,0.075 c 16.1548,-0.144 29.1993,4.9394 40.997,15.9764 11.7976,11.037 17.4841,23.9855 17.9912,39.2086 l -45.2102,11.3594 -0.4591,-9.8381 c 0.5206,-4.0901 -1.5484,-7.0429 -4.1861,-11.2906 -3.0008,-3.3159 -6.7278,-4.7683 -9.8862,-4.9258 l -33.2414,-0.075 c -4.0901,-0.5207 -7.0429,1.5483 -9.4271,4.9122 -2.3841,3.3639 -3.8365,7.0909 -3.9941,10.2493 l -0.4726,9.475 c 0.4591,9.8382 3.3023,16.3125 9.8246,18.8542 l 62.9958,25.6226 c 21.9989,9.6461 33.8446,26.0681 33.6735,48.5396 l -0.1231,27.8565 z"
         id="path3157"
         inkscape:connector-curvature="0"
         style="fill:#82522a;fill-rule:nonzero" /><polygon
         transform="matrix(0.93174993,0.36310064,-0.36310064,0.93174993,1967.0209,-884.08058)"
         points="4222,2508 4154,2534 4176,2588 4275,2550 4289,2587 4148,2642 4062,2420 4196,2368 4211,2405 4118,2441 4140,2496 4207,2470 "
         class="fil12"
         id="polygon3159"
         style="fill:#82522a;fill-rule:nonzero" /><polygon
         transform="matrix(0.93174993,0.36310064,-0.36310064,0.93174993,1967.0209,-884.08058)"
         points="3910,2479 3952,2463 4024,2647 4115,2612 4130,2650 3997,2701 "
         class="fil12"
         id="polygon3161"
         style="fill:#82522a;fill-rule:nonzero" /><polygon
         transform="matrix(0.93174993,0.36310064,-0.36310064,0.93174993,1967.0209,-884.08058)"
         points="3969,2712 3927,2729 3840,2506 3882,2490 "
         class="fil12"
         id="polygon3163"
         style="fill:#82522a;fill-rule:nonzero" /><polygon
         transform="matrix(0.93174993,0.36310064,-0.36310064,0.93174993,1967.0209,-884.08058)"
         points="3800,2778 3758,2794 3671,2572 3713,2556 3781,2644 3770,2533 3812,2517 3899,2740 3857,2756 3817,2655 3822,2707 3793,2718 3761,2677 "
         class="fil12"
         id="polygon3165"
         style="fill:#82522a;fill-rule:nonzero" /><path
         class="fil12"
         d="m 4113.9108,2926.531 -0.034,-24.6981 c 0.5206,-4.0901 -1.1853,-7.9747 -3.2544,-10.9275 -2.069,-2.9528 -5.4329,-5.3369 -9.8861,-4.9258 l -47.1697,-0.1367 0.3224,57.0079 47.1697,0.1366 c 8.5433,0.1096 13.8802,-5.3234 13.7842,-16.0933 z m 45.0401,157.0745 -47.1697,-0.1367 -46.5812,-100.7928 -11.7017,-0.2671 0.3433,101.0192 -44.9431,-0.3422 -0.4539,-238.4382 92.1128,0.4789 c 16.1549,-0.144 30.1311,5.3025 41.9288,16.3395 11.7976,11.037 17.4841,23.9855 17.6281,40.1404 l 0.034,24.6981 c -0.061,13.9283 -4.7818,26.041 -12.866,35.7696 -9.3791,10.2973 -20.4641,16.71 -34.1868,18.875 l 47.1499,102.0876 z m -174.7505,-0.4852 -151.3473,0.049 -0.4539,-238.4382 144.6675,0.5675 0.1784,40.8531 -99.7244,-0.2254 -0.4038,58.8713 72.7997,0.4654 0.1784,40.853 -72.7996,-0.4653 -0.041,57.9396 106.4041,-0.3913 0.1785,40.853 z m -219.7908,-157.5596 -0.034,-24.6981 c 0.5206,-4.0901 -1.1853,-7.9747 -3.2543,-10.9275 -2.0691,-2.9528 -5.433,-5.3369 -9.8862,-4.9258 l -47.1697,-0.1367 -0.041,57.9396 47.1697,0.1367 c 4.0901,0.5206 7.0429,-1.5484 9.4271,-4.9123 2.3841,-3.3639 3.8365,-7.0909 3.4254,-11.5441 z m 44.9431,0.3423 c 0.144,16.1548 -5.8711,28.8362 -17.8399,40.2707 -11.6056,10.5028 -25.4859,15.8262 -41.6408,15.9702 l -47.1697,-0.1367 0.3433,101.0193 -44.9431,-0.3423 -0.4539,-238.4382 92.1128,0.4789 c 16.1549,-0.144 30.1311,5.3025 41.9288,16.3395 11.7976,11.037 17.4841,23.9855 17.6281,40.1404 l 0.034,24.6982 z m -174.2017,102.7606 c 0.144,16.1549 -5.8712,28.8363 -17.8399,40.2708 -11.6057,10.5028 -25.4859,15.8262 -41.6408,15.9702 l -34.1732,-0.4382 c -16.1549,0.144 -30.1311,-5.3026 -40.997,-15.9765 -11.7976,-11.037 -17.4841,-23.9855 -17.6281,-40.1403 l 0.026,-184.5888 44.9431,0.3423 -0.026,184.5887 c -0.5207,4.0901 1.1853,7.9746 4.1861,11.2905 3.0008,3.316 5.4329,5.337 9.8861,4.9259 l 34.1732,0.4382 c 4.0901,0.5207 7.0429,-1.5484 9.4271,-4.9123 2.3841,-3.3639 3.8365,-7.0909 4.3572,-11.181 l 0.026,-184.5887 44.9431,0.3422 -0.026,184.5888 z"
         id="path3167"
         inkscape:connector-curvature="0"
         style="fill:#82522a;fill-rule:nonzero" /><path
         class="fil12"
         d="m 4425.3959,3016.7918 c -0.3766,20.245 -6.9124,37.0165 -21.834,50.52 -14.9216,13.5036 -31.3915,19.9643 -51.9996,20.5194 l -41.7847,-0.1847 c -19.3132,-0.014 -36.0847,-6.5493 -51.2463,-19.9705 -14.2298,-13.0581 -21.6222,-29.8911 -22.9035,-48.6357 l 56.1377,-14.6137 -0.6302,12.6334 c 0.048,5.3849 1.7539,9.2695 4.3916,13.5171 2.6377,4.2477 7.2965,6.0632 11.7497,5.6521 l 41.7847,0.1847 c 5.385,-0.048 9.2695,-1.754 12.9485,-5.6865 3.679,-3.9326 5.4945,-8.5913 5.4465,-13.9763 l -0.192,-21.5398 c 0.2671,-11.7016 -4.0765,-19.8338 -13.0309,-24.3966 l -77.5408,-32.364 c -28.5211,-12.1878 -42.0727,-32.4943 -42.8814,-60.7139 l 0.3287,-25.6299 c 0.014,-19.3132 7.4811,-35.7216 21.4709,-49.5883 14.9216,-13.5036 31.7547,-20.8961 51.9996,-20.5194 l 41.7848,0.1847 c 19.3132,0.014 37.0164,6.9124 51.2462,19.9705 14.2298,13.0581 21.6222,29.8911 22.5404,49.5674 l -55.7745,13.682 -0.3016,-12.9965 c -0.4111,-4.4532 -1.7539,-9.2695 -5.3234,-13.8802 -3.5694,-4.6108 -7.2964,-6.0632 -12.6814,-6.0152 l -41.7847,-0.1847 c -4.4532,0.4111 -8.3378,2.1171 -12.0168,6.0496 -2.7472,4.2957 -4.5627,8.9544 -5.0834,13.0445 l -0.2671,11.7017 c 0.3016,12.9965 3.7134,20.7656 12.0992,24.0335 l 77.5408,32.364 c 27.5894,11.8247 42.4358,31.5626 41.9496,60.3508 l 0.1304,35.4681 z"
         id="path3169"
         inkscape:connector-curvature="0"
         style="fill:#82522a;fill-rule:nonzero" /><path
         class="fil12"
         d="m 3455.2826,3016.5248 c -0.3767,20.245 -6.9125,37.0164 -21.8341,50.52 -14.9215,13.5036 -31.3915,19.9643 -51.9995,20.5194 l -41.7848,-0.1847 c -19.3132,-0.014 -36.0847,-6.5493 -51.2462,-19.9705 -14.2298,-13.0581 -21.6223,-29.8911 -22.9036,-48.6357 l 56.1377,-14.6137 -0.6302,12.6334 c 0.048,5.3849 1.7539,9.2695 4.3916,13.5171 2.6377,4.2477 7.2965,6.0632 11.7497,5.6521 l 41.7847,0.1847 c 5.385,-0.048 9.2696,-1.754 12.9486,-5.6865 3.679,-3.9326 5.4945,-8.5913 5.4465,-13.9763 l -0.192,-21.5398 c 0.2671,-11.7016 -4.0766,-19.8338 -13.031,-24.3966 l -77.5408,-32.364 c -28.5211,-12.1878 -42.0727,-32.4943 -42.8813,-60.7139 l 0.3286,-25.6299 c 0.014,-19.3133 7.4812,-35.7217 21.471,-49.5883 14.9215,-13.5036 31.7546,-20.8961 51.9995,-20.5194 l 41.7848,0.1847 c 19.3132,0.014 37.0165,6.9124 51.2463,19.9705 14.2297,13.0581 21.6222,29.8911 22.5404,49.5674 l -55.7746,13.682 -0.3015,-12.9965 c -0.4111,-4.4532 -1.754,-9.2695 -5.3234,-13.8802 -3.5695,-4.6108 -7.2965,-6.0632 -12.6814,-6.0152 l -41.7848,-0.1847 c -4.4532,0.4111 -8.3377,2.1171 -12.0167,6.0496 -2.7473,4.2957 -4.5628,8.9544 -5.0834,13.0445 l -0.2672,11.7017 c 0.3016,12.9965 3.7135,20.7656 12.0992,24.0335 l 77.5408,32.364 c 27.5894,11.8247 42.4359,31.5626 41.9496,60.3508 l 0.1305,35.4681 z"
         id="path3171"
         inkscape:connector-curvature="0"
         style="fill:#82522a;fill-rule:nonzero" /></g><path
       style="fill:#82522a;fill-rule:nonzero;display:inline"
       inkscape:connector-curvature="0"
       id="path3155"
       d="m 3401.5511,4176.1601 -75.0262,-0.2598 -15.2033,-101.4439 -82.6378,-0.01 -14.5167,100.5946 -73.1627,0.4664 92.6219,-650.7851 74.0945,-0.1033 93.8303,651.5374 z m -105.3232,-211.6909 -24.7817,-176.011 -24.6147,176.0799 50.3281,0.2942 z m 357.4351,57.7246 c 0.021,44.0114 -9.6869,79.9385 -27.6228,109.4394 -17.9359,29.5009 -39.9004,44.5529 -65.5303,44.2243 l -145.0306,0.3641 0.1294,-110.4943 18.3815,-0.3495 0.2503,-430.2754 -18.3814,0.3495 0.1294,-110.4942 145.0305,-0.3642 c 24.6982,-0.034 46.7451,14.9967 65.209,44.7302 18.4638,29.7336 27.7062,66.6061 28.0902,109.6857 l -0.6552,343.1844 z m -71.5048,-1.034 0.2921,-342.2527 c -0.096,-10.7699 -2.4186,-21.3342 -6.3991,-30.3982 -3.9805,-9.0639 -9.7766,-13.4691 -16.0933,-13.7842 l -55.713,-0.2463 -0.2504,430.2755 55.713,0.2462 c 6.3167,0.3151 11.6537,-5.1179 16.2165,-14.0723 4.5627,-8.9544 6.3302,-18.9981 6.5973,-30.6997 z m 346.5974,154.3867 -70.9361,0.2608 -0.4132,-296.3778 -23.6558,137.8165 -48.4645,0.432 -23.514,-137.9532 0.4133,296.3778 -70.9362,0.2609 0.5091,-651.264 70.9362,-0.2608 48.1035,292.4244 48.4625,-292.3566 70.9361,-0.2609 -0.5091,651.264 z m 107.336,-0.028 -70.9362,0.2609 0.5091,-651.264 70.9362,-0.2609 -0.5091,651.264 z m 263.153,-540.3263 -82.6378,-0.01 -0.3797,540.7697 -70.9361,0.2608 0.3797,-540.7697 -81.706,0.3569 0.1294,-110.4943 234.9167,0.3203 -0.1293,110.4943 z m 473.3373,393.742 c 0.021,44.0114 -9.6868,79.9385 -27.6228,109.4394 -17.9359,29.5009 -39.9003,44.5529 -65.5302,44.2243 l -52.5547,-0.089 c -25.6299,-0.3287 -46.7451,-14.9967 -65.572,-43.7985 -17.5322,-29.3705 -26.7746,-66.243 -27.1585,-109.3226 l -0.215,-357.4758 c -0.021,-44.0113 9.6868,-79.9385 27.6228,-109.4394 17.9359,-29.5009 39.9004,-44.5529 65.5303,-44.2242 l 52.5546,0.089 c 24.6982,-0.034 46.7451,14.9967 65.5721,43.7985 18.4638,29.7336 28.0693,65.6743 27.1584,109.3225 l 0.215,357.4758 z m -71.5047,-1.034 0.7167,-357.1127 c -0.096,-10.7699 -1.8499,-20.0394 -5.8305,-29.1033 -3.9805,-9.064 -8.8448,-13.1061 -15.1615,-13.4212 l -52.5547,-0.089 c -6.3167,-0.3151 -11.2905,4.1861 -14.9215,13.5036 -4.5628,8.9544 -6.3303,18.9981 -6.2343,29.768 l -0.7168,357.1127 c 0.096,10.7699 2.4186,21.3343 6.3992,30.3982 3.9805,9.064 9.7766,13.4692 15.1615,13.4212 l 52.5547,0.089 c 6.3167,0.3151 11.2905,-4.1861 14.9215,-13.5036 3.631,-9.3175 6.3303,-18.9981 6.2343,-29.768 z m 346.9125,148.07 -70.9361,0.2608 -96.877,-368.3135 0.3109,368.2457 -70.9361,0.2609 0.5091,-651.264 70.9361,-0.2608 0.2056,2.2266 96.5139,369.2452 -0.1534,-371.404 70.9361,-0.2609 -0.5091,651.264 z m 275.7698,0.1419 -239.37,0.091 0.5091,-651.264 228.6001,0.01 -0.1294,110.4943 -156.7322,0.097 -0.4236,160.8223 114.5843,0.6501 -0.1293,110.4942 -114.5844,-0.65 0.3026,158.9588 167.5021,-0.193 -0.1293,110.4943 z"
       class="fil12" /></g></svg>