<?xml version="1.0" encoding="UTF-8" standalone="no"?>
<svg
   xmlns:dc="http://purl.org/dc/elements/1.1/"
   xmlns:cc="http://creativecommons.org/ns#"
   xmlns:rdf="http://www.w3.org/1999/02/22-rdf-syntax-ns#"
   xmlns:svg="http://www.w3.org/2000/svg"
   xmlns="http://www.w3.org/2000/svg"
   xmlns:sodipodi="http://sodipodi.sourceforge.net/DTD/sodipodi-0.dtd"
   xmlns:inkscape="http://www.inkscape.org/namespaces/inkscape"
   style="shape-rendering:geometricPrecision;text-rendering:geometricPrecision;image-rendering:optimizeQuality"
   fill-rule="evenodd"
   xml:space="preserve"
   version="1.1"
   clip-rule="evenodd"
   viewBox="0 0 8769 8674"
   id="svg3100"
   inkscape:version="0.48.4 r9939"
   width="100%"
   height="100%"
   sodipodi:docname="Tickets.svg"><sodipodi:namedview
     pagecolor="#ffffff"
     bordercolor="#666666"
     borderopacity="1"
     objecttolerance="10"
     gridtolerance="10"
     guidetolerance="10"
     inkscape:pageopacity="0"
     inkscape:pageshadow="2"
     inkscape:window-width="983"
     inkscape:window-height="576"
     id="namedview3175"
     showgrid="false"
     inkscape:zoom="0.10883099"
     inkscape:cx="4205.6482"
     inkscape:cy="5229.1489"
     inkscape:window-x="41"
     inkscape:window-y="24"
     inkscape:window-maximized="1"
     inkscape:current-layer="svg3100" /><defs
     id="defs3102"><style
       type="text/css"
       id="style3104">
    .fil1 {fill:none}
    .fil6 {fill:#AE7274}
    .fil5 {fill:#B37D72}
    .fil11 {fill:#BA7728}
    .fil2 {fill:#D4989A}
    .fil8 {fill:#EBC05B}
    .fil0 {fill:#F5F2F2}
    .fil7 {fill:#6E392E;fill-rule:nonzero}
    .fil9 {fill:#73452A;fill-rule:nonzero}
    .fil12 {fill:#82522A;fill-rule:nonzero}
    .fil3 {fill:#945F54;fill-rule:nonzero}
    .fil4 {fill:#B37D72;fill-rule:nonzero}
    .fil10 {fill:#BA7728;fill-rule:nonzero}
  </style></defs><g
     id="Layer_x0020_1"><path
       class="fil0"
       d="m3804 3897c19 14 39 28 59 42-25 6-15 32-2 42s6 4 9 6c12 2 24 1 33-1 8 6 16 11 24 17 8 0 16 0 23-2l60 42c-25 6-16 33-2 43s6 4 9 6c12 2 23 1 33-1 8 6 15 11 23 17 8 0 15 0 22-2 22 15 44 31 65 46-146 39-103 188-8 258 95 69 105 63 165 85 115 33 235 42 323 18 9 7 19 14 29 21 7-1 13-3 19-5 23 16 46 33 69 49-25 7-14 36 1 46l9 6c13 2 25 2 34-1 8 6 17 12 26 18 8 0 16-1 23-2 22 16 44 32 66 47-26 7-14 37 1 47 14 10 6 4 10 6 13 1 25 1 35-2 8 6 17 12 25 18 9 0 17 0 24-2 22 16 44 32 67 48-26 7-13 37 2 47s6 4 10 7c13 1 26 1 35-1 9 7 17 12 26 19 9 0 16 0 23-2 18 13 37 26 56 40-220 63-442 126-666 190-226 65-455 130-685 196 311 62 624 125 940 188 355 71 713 143 1074 216 365 73 732 147 1104 221 1 4 3 9 4 13 8 2 17 3 25 5 19 70 89 145 187 209 96 58 213 105 334 130h2c1 4 2 9 4 13 8 2 17 4 25 6h2c6 19 11 39 17 58-42-8-68 11-63 27 4 16 9 17 19 26 12 6 26 10 39 13 2 4 3 7 4 11 9 3 17 6 27 8 6 20 12 40 19 59-43-9-69 11-64 27s9 18 19 26c12 6 25 11 39 14 1 4 3 8 4 12 8 3 18 6 27 8l18 60c-43-9-69 11-64 28s9 18 19 26c13 6 26 11 40 13l3 12c9 4 18 7 29 9 3 10 6 20 9 31 3 10 6 20 9 30-42-8-70 12-65 29s10 18 20 27c13 6 26 11 40 14l3 12c10 4 19 7 29 9 6 21 12 42 19 63-44-9-71 11-66 29 5 17 10 19 20 27 11 6 26 11 40 14 1 4 3 8 4 12 9 4 19 7 28 8 6 22 13 43 20 64-44-10-71 12-66 30 5 17 10 19 20 28 12 6 26 11 41 14 1 4 2 8 4 12 10 4 19 7 29 9 6 22 13 44 20 66h-3c-283-60-475 25-429 193-411-89-817-177-1219-264-399-87-794-173-1184-258-377-82-751-163-1120-243-367-80-730-159-1090-238v-14c-8-1-17-3-25-6 0-75-50-152-131-218-80-58-184-105-297-129h-2v-13c-8-2-15-3-23-5-1 0-2 0-2-1 0-18 1-37 1-57 40 9 71-10 72-26 1-15-3-17-10-24-10-6-22-10-34-13v-10c-8-4-16-6-24-8 0-19 1-37 1-56 39 8 70-10 71-25 0-15-3-16-10-24-10-6-22-10-34-12v-11c-7-3-16-6-24-7 1-18 1-37 2-55 38 8 69-13 69-24v-5c-286 81-576 164-868 247-9-8-18-17-27-25-7 2-15 4-23 7-16-15-33-31-50-46 30-8 24-43 11-55s-6-5-9-7c-13-2-27-2-38 2-8-7-16-14-23-21-9 0-18 1-26 3-20-18-39-36-59-54 29-8 25-42 12-54s-6-5-9-7c-13-2-26-1-38 2-8-7-15-14-22-21-9 0-18 1-26 3-19-18-39-36-58-54 29-8 24-41 12-53-13-12-6-6-8-7-13-2-26-2-37 1-8-7-15-13-23-20-9 0-18 0-26 3-20-19-41-38-61-57 172-47 158-222 72-300s-95-69-154-94c-111-36-235-45-335-19-8-7-16-15-23-22-7 1-15 3-22 5-20-18-39-35-58-53 29-8 25-38 14-49-12-11-5-4-8-6-12-2-25-1-36 1-7-6-14-12-21-19-9 0-17 0-25 3-17-16-35-32-52-49 28-7 25-37 14-48s-5-4-8-6c-12-2-25-2-36 1-7-6-14-12-20-18-9 0-17 0-25 3-17-16-35-32-51-48 28-7 26-37 14-47-12-11-5-4-8-6-12-2-24-1-35 2-7-6-13-13-19-19-9 0-17 0-25 3-14-13-28-26-41-39 614-155 1215-307 1802-456 573-145 1134-286 1682-425 9 7 18 13 27 19 6-1 12-3 18-5 16 11 32 23 48 34-25 6-16 32-3 41s6 4 9 6c12 2 23 1 33-1 7 6 15 11 22 16 8 0 15 0 22-2z"
       id="path3107" /><polygon
       points="0 0 8769 0 8769 8674 0 8674"
       class="fil1"
       id="polygon3109" /><path
       class="fil2"
       d="m5649 4488l2064 756c-88 239 35 504 274 593l2 1-35 94c-37-14-79 6-93 43s6 79 43 93l-35 94c-37-14-79 6-93 43s6 79 43 93l-35 94c-37-14-79 6-93 43s6 79 43 93l-17 47-17 47c-37-14-79 6-93 43s6 79 43 93l-35 94c-37-14-79 6-93 43s6 79 43 93l-35 94c-37-14-79 6-93 43s6 79 43 93l-35 94-2-1c-239-87-504 37-592 276l-2064-756-2008-735c88-239-35-504-274-593l-2-1 35-94c37 14 79-6 93-43s-6-79-43-93l35-94c37 14 79-6 93-43s-6-79-43-93l35-94c37 14 79-6 93-43s-6-79-43-93l17-47 17-47c37 14 79-6 93-43s-6-79-43-93l35-94c37 14 79-6 93-43s-6-79-43-93l35-94c37 14 79-6 93-43s-6-79-43-93l35-94 2 1c239 87 504-37 592-276l2008 735z"
       id="path3111" /><path
       class="fil2"
       d="m3642 3753l2008 735 2064 756c-88 239 35 504 274 593 1 0 1 0 2 1l-35 94c-37-14-79 6-93 43s6 79 43 93l-35 94c-37-14-79 6-93 43s6 79 43 93l-35 94c-37-14-79 6-93 43s6 79 43 93l-17 47-17 47c-37-14-79 6-93 43s6 79 43 93l-35 94c-37-14-79 6-93 43s6 79 43 93l-35 94c-37-14-79 6-93 43s6 79 43 93l-35 94c-1 0-1 0-2-1-239-87-504 37-592 276l-2064-756-2008-735c88-239-35-504-274-593-1 0-1 0-2-1l35-94c37 14 79-6 93-43s-6-79-43-93l35-94c37 14 79-6 93-43s-6-79-43-93l35-94c37 14 79-6 93-43s-6-79-43-93l17-47 17-47c37 14 79-6 93-43s-6-79-43-93l35-94c37 14 79-6 93-43s-6-79-43-93l35-94c37 14 79-6 93-43s-6-79-43-93l35-94c1 0 1 0 2 1 239 87 504-37 592-276z"
       id="path3113" /><path
       class="fil3"
       d="m3843 4091l423 155 2652 971 423 155c32 12 57 36 71 65s16 63 4 96l-600 1640c-12 32-36 57-65 71s-63 16-96 4l-398-146-26-9-2652-971-26-9-398-146c-32-12-57-36-71-65s-16-63-4-96l600-1640c12-32 36-57 65-71s63-16 96-4zm3082 1187l-649 1773 398 146c18 7 37 5 54-2 16-8 30-21 37-40l600-1640c7-18 5-37-2-54-8-16-21-30-40-37l-398-146zm-3352 783l649-1773-398-146c-18-7-37-5-54 2-16 8-30 21-37 40l-600 1640c-7 18-5 37 2 54 8 16 21 30 40 37l398 146zm701-1754l-649 1773 2600 952 649-1773-2600-952z"
       id="path3115" /><path
       class="fil4"
       d="m3798 4583c-3 9-5 15-5 20s0 8 2 11c3 5 10 10 21 16s26 12 46 19c19 7 34 12 46 14 12 3 21 4 28 3 4-1 7-3 10-6 3-4 6-11 10-20 3-9 5-17 6-21 0-5-1-9-3-11-4-5-12-10-23-16s-26-12-44-19c-16-6-30-10-41-13-12-3-20-4-27-4-5 0-9 2-13 5-3 3-7 10-11 22zm53 95c-22-8-40-16-53-24s-23-17-28-26c-3-5-5-13-4-21 1-9 3-20 8-32 5-13 10-23 15-30s11-11 17-14c10-3 22-4 38-1 16 2 34 7 56 15 21 8 39 16 53 24s23 17 29 25c4 6 5 13 5 22s-3 19-8 32c-4 11-9 21-13 28-5 7-10 12-15 14-9 4-22 6-38 3-17-2-37-7-60-16zm78 94l-36 99-24-9 27-74-40-17c0 2-1 3-2 5s-2 5-3 8c-7 20-19 35-36 43-17 9-34 9-53 3-22-8-37-24-43-47s-3-51 9-84l3-8 25 9c-1 1-1 2-2 4-1 1-1 4-2 6-8 23-11 43-7 59s14 27 29 32c12 4 23 3 33-3s18-17 24-33c1-4 3-9 4-14 2-6 3-12 5-20l89 40zm-176 164l7 28c3 14 7 23 11 29s10 11 17 13c8 3 16 2 24-2s13-11 17-21c3-7 4-15 3-25 0-10-2-22-6-37l31 11c2 9 3 19 2 28-1 10-3 19-7 29-7 20-18 34-32 41-14 8-29 9-46 3-11-4-19-10-26-20-7-9-12-22-16-39l-5-23c-4-16-8-28-14-35-5-7-13-13-22-16l-6-2-32 87-24-9 43-117c2 0 3 1 5 1 2 1 4 1 7 2 21 8 36 17 46 27 10 11 17 25 22 44zm-107 106c-8 7-15 14-20 22s-10 16-13 24c-5 14-5 26-1 37 5 11 13 19 25 24 13 5 24 4 33-3s17-20 24-39 1-2 1-4c1-2 1-4 2-6l20 7 35 73 31-84 24 9-43 119-27-10-32-69c-7 18-18 30-32 36s-30 7-47 0c-20-7-33-20-40-38-6-18-5-39 3-62 3-7 6-15 11-23s10-15 17-23l28 10zm-84 197c20 7 38 17 53 30s28 29 39 48l12 21c5 9 9 15 12 18 2 3 5 5 7 6h1l35-97 23 9-47 130-9-3c-15-5-29-20-42-42-1-3-3-5-4-6l-11-20c-10-16-20-30-33-40-12-11-27-19-44-25l-27-10 10-27 26 9zm-63 173c20 7 38 17 53 30s28 29 39 48l12 21c5 9 9 15 12 18 2 3 5 5 7 6h1l35-97 23 9-47 130-9-3c-15-5-29-20-42-42-1-3-3-5-4-6l-11-20c-10-16-20-30-33-40-12-11-27-19-44-25l-27-10 10-27 26 9zm72 240l-24-63 35 13 21 61-11 30-198-72 11-29 166 61z"
       id="path3117" /><path
       class="fil4"
       d="m6701 6755c3-9 5-15 5-20s0-8-2-11c-3-5-10-10-21-16s-26-12-46-19c-19-7-34-12-46-14-12-3-21-4-28-3-4 1-7 3-10 6-3 4-6 11-10 20-3 9-5 17-6 21 0 5 1 9 3 11 4 5 12 10 23 16s26 12 44 19c16 6 30 10 41 13 12 3 20 4 27 4 5 0 9-2 13-5 3-3 7-10 11-22zm-53-95c22 8 40 16 53 24s23 17 28 26c3 5 5 13 4 21-1 9-3 20-8 32-5 13-10 23-15 30s-11 11-17 14c-10 3-22 4-38 1-16-2-34-7-56-15-21-8-39-16-53-24s-23-17-29-25c-4-6-5-13-5-22s3-19 8-32c4-11 9-21 13-28 5-7 10-12 15-14 9-4 22-6 38-3 17 2 37 7 60 16zm-78-94l36-99 24 9-27 74 40 17c0-2 1-3 2-5s2-5 3-8c7-20 19-35 36-43 17-9 34-9 53-3 22 8 37 24 43 47s3 51-9 84l-3 8-25-9c1-1 1-2 2-4 1-1 1-4 2-6 8-23 11-43 7-59s-14-27-29-32c-12-4-23-3-33 3s-18 17-24 33c-1 4-3 9-4 14-2 6-3 12-5 20l-89-40zm176-164l-7-28c-3-13-7-23-11-29s-10-11-17-13c-8-3-16-2-24 2s-13 11-17 21c-3 7-4 15-3 25 0 10 2 22 6 37l-31-11c-2-9-3-19-2-28 1-10 3-19 7-29 7-20 18-34 32-41 14-8 29-9 46-3 11 4 19 10 26 20 7 9 12 22 16 39l5 23c4 16 8 28 14 35 5 7 13 13 22 16l6 2 32-87 24 9-43 117c-2 0-3-1-5-1-2-1-4-1-7-2-21-8-36-17-46-27-10-11-17-25-22-44zm107-106c8-7 15-14 20-22s10-16 13-24c5-14 5-26 1-37-5-11-13-19-25-24-13-5-24-4-33 3s-17 20-24 39-1 2-1 4c-1 2-1 4-2 6l-20-7-35-73-31 84-24-9 43-119 27 10 32 69c7-18 18-30 32-36s30-7 47 0c20 7 33 20 40 38 6 18 5 39-3 62-3 7-6 15-11 23s-10 15-17 23l-28-10zm84-197c-20-7-38-17-53-30s-28-29-39-48l-12-21c-5-9-9-15-12-18-2-3-5-5-7-6h-1l-35 97-23-9 47-130 9 3c15 5 29 20 42 42 1 3 3 5 3 6l11 20c10 16 20 30 33 40 12 11 27 19 44 25l27 10-10 27-26-9zm63-173c-20-7-38-17-53-30s-28-29-39-48l-12-21c-5-9-9-15-12-18-2-3-5-5-7-6h-1l-35 96-23-9 47-130 9 3c15 5 29 19 42 42 1 3 3 5 3 6l11 20c10 16 20 30 33 40 12 11 27 19 44 25l27 10-10 27-26-9zm-72-240l24 63-35-13-21-61 11-30 198 72-11 29-166-61z"
       id="path3119" /><path
       class="fil5"
       d="m4361 5125l-3 67 63 23-65 18-2 67-38-56-65 19 42-53-38-56 63 23 42-53zm274 100l-3 67 63 23-65 18-2 67-38-56-65 19 42-53-38-56 63 23 42-53zm274 100l-3 67 63 23-65 18-2 67-38-56-65 19 42-53-38-56 63 23 42-53zm274 100l-3 67 63 23-65 18-2 67-38-56-65 19 42-53-38-56 63 23 42-53zm274 100l-3 67 63 23-65 18-2 67-38-56-65 19 42-53-38-56 63 23 42-53zm274 100l-3 67 63 23-65 18-2 67-38-56-65 19 42-53-38-56 63 23 42-53zm274 100l-3 67 63 23-65 18-2 67-38-56-65 19 42-53-38-56 63 23 42-53zm274 100l-3 67 63 23-65 18-2 67-38-56-65 19 42-53-38-56 63 23 42-53z"
       id="path3121" /><path
       class="fil3"
       d="m4204 6109l-70-26 20-100-77-28-49 90-69-25 311-580 69 25-135 644zm-27-235l37-174-84 157 47 17zm315 177c-15 41-36 72-63 93s-53 28-77 19l-137-50 38-104 17 6 148-404-17-6 38-104 137 50c24 9 39 30 46 64s3 72-12 113l-118 322zm-67-25l118-321c4-10 5-21 5-31-1-10-4-16-10-18l-52-19-148 404 52 19c6 2 13 0 20-7s13-16 16-26zm272 264l-67-24 102-279-70 121-46-17 25-138-102 279-67-24 224-611 67 24-55 291 146-258 67 24-224 611zm101 37l-67-24 224-611 67 24-224 611zm433-417l-78-28-186 508-67-24 186-508-77-28 38-104 221 81-38 104zm310 532c-15 41-36 72-63 93s-53 28-77 19l-50-18c-24-9-39-30-46-64s-3-71 12-112l123-336c15-41 36-72 63-93s53-28 76-19l50 18c24 9 39 30 46 64s3 71-12 112l-123 336zm-67-25l123-335c4-10 5-20 4-30s-4-16-10-18l-50-18c-6-2-12 0-19 8-7 7-13 16-16 25l-123 335c-4 10-5 21-4 31s4 16 10 18l50 18c6 2 12 0 19-8 7-7 12-16 16-26zm275 258l-67-24 36-379-127 346-67-24 224-611 67 24v2l-36 380 128-349 67 24-224 611zm259 95l-224-82 224-611 214 78-38 104-147-54-55 151 107 39-38 104-107-39-55 149 158 58-38 104z"
       id="path3123" /><path
       class="fil3"
       d="m6285 5650c-5 15-16 26-30 32-15 6-29 6-45 1l-32-12c-15-5-26-15-33-29s-8-28-3-43l46 5-3 9c-1 4-1 8 0 12s4 7 7 8l31 11c4 1 8 1 11-1 4-2 6-5 8-9l6-16c3-9 2-16-3-22l-49-46c-18-17-23-36-15-57l7-19c5-15 15-25 30-32 15-6 29-7 44-1l32 12c15 5 26 15 33 29s8 28 3 43l-46-5 3-9c1-4 1-7 0-12-1-4-4-7-8-8l-31-11c-4-1-7-1-11 1s-6 5-7 9l-3 9c-3 9-3 17 3 22l50 46c18 16 23 35 15 57l-10 26z"
       id="path3125" /><polygon
       points="6103 5640 5961 5588 6043 5364 6178 5414 6164 5452 6071 5418 6051 5473 6119 5498 6105 5536 6037 5511 6017 5566 6117 5602"
       class="fil3"
       id="polygon3127" /><polygon
       points="5942 5581 5808 5532 5890 5308 5932 5324 5864 5510 5956 5543"
       class="fil3"
       id="polygon3129" /><polygon
       points="5787 5525 5744 5509 5826 5285 5869 5300"
       class="fil3"
       id="polygon3131" /><polygon
       points="5723 5501 5680 5486 5718 5383 5686 5426 5657 5415 5660 5363 5623 5465 5581 5449 5663 5225 5705 5240 5697 5352 5762 5261 5805 5277"
       class="fil3"
       id="polygon3133" /><path
       class="fil3"
       d="m5302 5180l9-24c1-4 2-8 0-12-1-4-4-7-8-8l-45-16-20 54 45 16c8 3 14 0 18-10zm-11 163l-44-16-9-111-12-4-35 95-42-16 82-224 87 32c15 5 26 15 33 30 7 14 8 29 3 44l-9 24c-5 13-13 23-25 29s-25 9-39 6l10 112zm-164-60l-142-52 82-224 136 50-14 38-93-34-20 55 68 25-14 38-68-25-20 55 100 37-14 38zm-152-223l9-24c1-4 2-8 0-12-1-4-4-7-8-8l-45-16-20 54 45 16c4 1 7 1 11-2 4-2 6-5 8-9zm42 16c-5 15-16 26-30 32-15 6-29 6-45 1l-44-16-35 95-42-16 82-224 87 32c15 5 26 15 33 30 7 14 8 29 3 44l-9 24zm-199 37c-5 15-16 26-30 32-15 6-29 7-44 1l-32-12c-15-5-26-15-33-29s-8-29-3-44l64-173 42 16-63 173c-1 4-1 8 0 12s4 7 7 8l32 12c4 1 7 1 11-1s6-5 7-9l63-173 42 16-64 173z"
       id="path3135" /><path
       class="fil3"
       d="m5586 5379c-7 19-19 32-38 40-18 8-37 8-56 1l-39-14c-18-7-32-19-41-36s-10-35-4-53l58 6-4 12c-2 5-2 10 0 15s5 8 9 10l39 14c5 2 10 1 14-1 5-3 8-6 10-11l7-20c4-11 3-20-4-27l-61-57c-22-21-29-45-19-72l9-24c7-18 19-32 38-39 18-8 37-8 55-2l39 14c18 7 32 19 41 36s11 35 4 54l-58-6 4-12c2-5 2-9 0-14s-5-9-10-10l-39-14c-5-2-9-1-13 2s-8 6-9 11l-4 11c-4 12-3 21 3 27l62 57c22 20 28 44 19 71l-12 33z"
       id="path3137" /><path
       class="fil3"
       d="m4653 5038c-7 19-19 32-38 40-18 8-37 8-56 1l-39-14c-18-7-32-19-41-36s-10-35-4-53l58 6-4 12c-2 5-2 10 0 15s5 8 9 10l39 14c5 2 10 1 14-1 5-3 8-6 10-11l7-20c4-11 3-20-4-27l-61-57c-22-21-29-45-19-72l9-24c7-18 19-32 38-39 18-8 37-8 55-2l39 14c18 7 32 19 41 36s11 35 4 54l-58-6 4-12c2-5 2-9 0-14s-5-9-10-10l-39-14c-5-2-9-1-13 2s-8 6-9 11l-4 11c-4 12-3 21 3 27l62 57c22 20 28 44 19 71l-12 33z"
       id="path3139" /><path
       class="fil6"
       d="m3642 3753l1083 396-1917 746c0-2 1-3 1-5v-17c0-1 0-3-1-4v-14s0-1-1-1l-1-1v-10l-1-1v-2l-1-1v-1l-1-1v-1l-1-1-1-1-1-1-1-1v-1l-1-1-1-1-1-1-1-1-1-1-1-1-1-1-1-1-1-1-1-1-1-1-1-1-1-1-1-1-1-1-1-1-1-1h-2l-1-1h-1l-1-1h-1l-1-1h-11c-1 0-1 0-2-1l17-47 17-47c37 14 79-6 93-43s-6-79-43-93l35-94c37 14 79-6 93-43s-6-79-43-93l35-94c37 14 79-6 93-43s-6-79-43-93l35-94c1 0 1 0 2 1 239 87 504-37 592-276z"
       id="path3141" /><path
       class="fil7"
       d="m3843 4091l423 155 108 40-77 30-24-9-8 21-68 27 24-66-398-146c-18-7-37-5-54 2-16 8-30 21-37 40l-150 409-68 27 166-454c12-32 36-57 65-71s63-16 96-4z"
       id="path3143" /><path
       class="fil8"
       d="m764 2966l4903-1909 30 77c-37 14-56 56-41 93 14 37 56 56 93 41l36 94c-37 14-56 56-41 93 14 37 56 56 93 41l36 94c-37 14-56 56-41 93 14 37 56 56 93 41l39 101c-217 85-325 330-240 547s330 325 547 240l39 101c-37 14-56 56-41 93 14 37 56 56 93 41l36 94c-37 14-56 56-41 93 14 37 56 56 93 41l36 94c-37 14-56 56-41 93 14 37 56 56 93 41l30 77-4903 1909-30-77c37-14 56-56 41-93-14-37-56-56-93-41l-36-94c37-14 56-56 41-93-14-37-56-56-93-41l-36-94c37-14 56-56 41-93-14-37-56-56-93-41l-39-101c217-85 325-330 240-547s-330-325-547-240l-39-101c37-14 56-56 41-93-14-37-56-56-93-41l-36-94c37-14 56-56 41-93-14-37-56-56-93-41l-36-94c37-14 56-56 41-93-14-37-56-56-93-41l-30-77z"
       id="path3145" /><path
       class="fil9"
       d="m1570 2918l420-164 2632-1024 420-164c32-13 66-11 96 2 29 13 54 37 66 69l634 1628c13 32 11 66-2 96-13 29-37 54-69 66l-395 154-26 10-2632 1024-26 10-395 154c-32 13-66 11-96-2-29-13-54-37-66-69l-634-1628c-13-32-11-66 2-96 13-29 37-54 69-66zm3097-1147l685 1759 395-154c18-7 32-21 39-37 7-17 8-36 1-54l-634-1628c-7-18-21-32-37-39-17-7-36-8-54-1l-395 154zm-1998 2804l-685-1759-395 154c-18 7-32 21-39 37-7 17-8 36-1 54l634 1628c7 18 21 32 37 39 17 7 36 8 54 1l395-154zm-634-1779l685 1759 2580-1004-685-1759-2580 1004z"
       id="path3147" /><path
       class="fil10"
       d="m1861 3318c3 9 6 15 9 18 3 4 6 6 9 7 5 2 14 1 26-2s28-8 47-16c18-7 33-14 44-20s18-11 23-16c3-3 4-7 3-11 0-5-2-12-6-21s-7-16-10-20-6-6-10-6c-7-1-16 0-28 4-12 3-27 8-45 15-16 6-29 12-40 17s-18 10-22 15c-4 4-6 8-6 12 0 5 2 12 6 23zm102 36c-22 9-41 14-56 17s-28 2-38-1c-6-2-12-6-17-13s-10-17-15-30-8-24-9-32c-1-9 1-16 4-22 5-9 14-17 28-26 13-9 31-17 52-25s40-14 56-16c16-3 29-3 38 0 6 2 12 6 18 13 5 7 10 17 16 30 4 11 7 21 8 29s0 15-2 21c-4 9-13 18-26 28-14 9-32 19-56 28zm121 19l38 98-23 9-29-74-42 14c1 1 1 3 2 5s2 5 3 8c8 20 8 39 2 56-7 17-19 30-38 37-22 9-43 6-63-7s-36-36-49-69l-3-7 24-10c0 1 1 3 1 4s1 4 2 6c9 23 20 39 34 49 13 9 28 11 43 5 12-5 19-13 23-24 3-11 2-25-4-40-2-4-4-8-6-14-3-5-6-11-9-18l93-29zm-24 239l24 16c11 8 21 13 28 15s15 1 22-1c8-3 13-9 16-17s3-17-1-27c-3-7-7-14-14-21s-16-15-29-24l31-12c8 6 14 13 20 20 6 8 10 17 14 27 8 20 9 37 4 52s-16 26-33 32c-11 4-21 5-32 2s-24-9-38-19l-19-14c-13-10-25-15-33-17-9-2-18-1-27 2l-6 2 34 87-24 9-45-116c1-1 3-2 4-2 2-1 4-2 7-3 20-8 38-11 52-10s30 7 45 18zm-10 151c-1 10-1 20 0 29s3 18 6 27c5 14 13 23 24 29 11 5 22 6 35 1s20-13 23-24c2-11 0-26-7-45l-2-4-3-6 20-8 74 32-33-84 24-9 46 118-27 10-70-31c6 18 6 34 0 49-6 14-18 25-35 31-20 8-38 7-55-2s-30-26-39-49c-3-7-5-15-7-24-1-9-2-18-2-28l28-11zm68 203c20-8 40-12 60-12s40 3 60 10l23 8c10 3 17 5 21 6s7 1 9 0h1l-37-96 23-9 50 129-9 4c-15 6-35 4-60-4-3-1-5-2-7-2l-21-7c-18-6-35-9-51-8-16 0-33 4-50 10l-27 10-10-27 25-10zm67 171c20-8 40-12 60-12s40 3 60 10l23 8c10 3 17 5 21 6s7 1 9 0h1l-37-96 23-9 50 129-9 4c-15 6-35 4-60-4-3-1-5-2-7-2l-21-7c-18-6-35-9-51-8-16 0-33 4-50 10l-27 10-10-27 25-10zm212 132l-60-31 35-14 56 31 12 30-196 76-11-28 165-64z"
       id="path3149" /><path
       class="fil10"
       d="m5475 3029c-3-9-6-15-9-18-3-4-6-6-9-7-5-2-14-1-26 2s-28 8-47 16c-18 7-33 14-44 20s-18 11-23 16c-3 3-4 7-3 11 0 5 2 12 6 21s7 16 10 20 6 6 10 6c7 1 16 0 28-4 12-3 27-8 45-15 16-6 29-12 40-17s18-10 22-15c4-4 6-8 6-12 0-5-2-12-6-23zm-102-36c22-9 41-14 56-17s28-2 38 1c6 2 12 6 17 13s10 17 15 30 8 24 9 32c1 9-1 16-4 22-5 9-14 17-28 26-13 9-31 17-52 25s-40 14-56 16c-16 3-29 3-38 0-6-2-12-6-18-13-5-7-10-17-16-30-4-11-7-21-8-29s0-15 2-21c4-9 13-18 26-28 14-9 32-19 56-28zm-121-19l-38-98 23-9 29 74 42-14c-1-1-1-3-2-5s-2-5-3-8c-8-20-8-39-2-56 7-17 19-30 38-37 22-9 43-6 63 7s36 36 49 69l3 7-24 10c0-1-1-3-1-4s-1-4-2-6c-9-23-20-39-34-49-13-9-28-11-43-5-12 5-19 13-23 24-3 11-2 25 4 40 2 4 4 8 6 14 3 5 6 11 9 18l-93 29zm24-239l-24-16c-11-8-21-13-28-15s-15-1-22 1c-8 3-13 9-16 17s-3 17 1 27c3 7 7 14 14 21s16 15 29 24l-31 12c-8-6-14-13-20-20-6-8-10-17-14-27-8-20-9-37-4-52s16-26 33-32c11-4 21-5 32-2s24 9 38 19l19 14c13 10 25 15 33 17 9 2 18 1 27-2l6-2-34-87 24-9 45 116c-1 1-3 2-5 2-2 1-4 2-7 3-20 8-38 11-52 10s-30-7-45-18zm10-151c1-10 1-20 0-29s-3-18-6-27c-5-14-13-23-24-29-11-5-22-6-35-1s-20 13-23 24c-2 11 0 26 7 45l2 4 3 6-20 8-74-32 33 84-24 9-46-118 27-10 70 31c-6-18-6-34 0-49 6-14 18-25 35-31 20-8 38-7 55 2s30 26 39 49c3 7 5 15 7 24 1 9 2 18 2 28l-28 11zm-68-203c-20 8-40 12-60 12s-40-3-60-10l-23-8c-10-3-17-5-21-6s-7-1-9 0h-1l37 96-23 9-50-129 9-4c15-6 35-4 60 4 3 1 5 2 7 2l21 7c18 6 35 9 51 8 16 0 33-4 50-10l27-10 10 27-25 10zm-67-171c-20 8-40 12-60 12s-40-3-60-10l-23-8c-10-3-17-5-21-6s-7-1-9 0h-1l37 96-23 9-50-129 9-4c15-6 35-4 60 4 3 1 5 2 7 2l21 7c18 6 35 9 51 8 16 0 33-4 50-10l27-10 10 27-25 10zm-212-132l60 31-35 14-56-31-12-30 196-76 11 28-165 64z"
       id="path3151" /><path
       class="fil11"
       d="m2642 3352l43 52 63-25-37 57 43 52-65-17-36 57-4-67-65-17 63-24-4-67zm272-106l43 52 63-25-37 57 43 52-65-17-36 57-4-67-65-17 63-24-4-67zm272-106l43 52 63-25-37 57 43 52-65-17-36 57-4-67-65-17 63-24-4-67zm272-106l43 52 63-25-37 57 43 52-65-17-36 57-4-67-65-17 63-24-4-67zm272-106l43 52 63-25-37 57 43 52-65-17-36 57-4-67-65-17 63-24-4-67zm272-106l43 52 63-25-37 57 43 52-65-17-36 57-4-67-65-17 63-24-4-67zm272-106l43 52 63-25-37 57 43 52-65-17-36 57-4-67-65-17 63-24-4-67zm272-106l43 52 63-25-37 57 43 52-65-17-36 57-4-67-65-17 63-24-4-67z"
       id="path3153" /><path
       class="fil12"
       d="m3174 4194l-70 27-51-89-77 30 23 99-68 27-150-640 69-27 324 573zm-175-159l-87-155 41 173 47-18zm354-76c16 41 20 78 14 112s-21 56-45 65l-135 53-40-103 17-7-156-401-17 7-40-103 135-53c23-9 49-3 77 18s50 52 66 92l124 320zm-67 25l-124-319c-4-10-10-19-17-26s-14-9-20-7l-52 20 156 401 52-20c6-2 9-9 10-19s-1-20-5-31zm379 18l-66 26-108-276 28 137-45 18-72-120 108 276-66 26-236-607 66-26 151 255-61-290 66-26 236 607zm100-39l-66 26-236-607 66-26 236 607zm49-599l-77 30 196 504-66 26-196-504-76 30-40-103 219-85 40 103zm584 195c16 41 20 78 14 112s-21 56-45 65l-49 19c-24 9-49 3-77-17-27-21-49-52-65-92l-130-333c-16-41-20-78-14-112s21-56 45-65l49-19c23-9 49-3 77 17 28 21 50 51 65 92l130 333zm-67 25l-129-333c-4-10-9-18-16-25s-13-9-19-7l-49 19c-6 2-9 8-9 18-1 10 1 20 5 30l129 333c4 10 10 19 17 26s14 9 19 7l49-19c6-2 9-8 9-18s-1-20-5-30zm377 12l-66 26-224-308 134 343-66 26-236-607 66-26 1 2 224 309-135-346 66-26 236 607zm257-100l-223 87-236-607 213-83 40 103-146 57 58 150 107-41 40 103-107 41 58 148 156-61 40 103z"
       id="path3155" /><path
       class="fil12"
       d="m4432 2474c6 15 5 29-2 44-7 14-18 24-33 30l-31 12c-15 6-29 6-44 0-14-6-25-16-31-30l38-27 4 9c1 4 4 7 8 9s7 3 11 1l31-12c4-1 6-4 8-8 1-4 1-8 0-12l-6-16c-3-9-9-14-17-14l-67-2c-25-1-41-12-49-33l-7-19c-6-15-5-29 2-43s18-24 33-30l31-12c15-6 29-6 44 0s25 16 31 30l-38 27-4-9c-1-4-4-6-8-9-4-2-8-2-11-1l-31 12c-4 1-6 4-7 8s-1 8 0 11l3 9c4 9 9 14 16 14l68 1c24 1 41 12 49 33l10 26z"
       id="path3157" /><polygon
       points="4289 2587 4148 2642 4062 2420 4196 2368 4211 2405 4118 2441 4140 2496 4207 2470 4222 2508 4154 2534 4176 2588 4275 2550"
       class="fil12"
       id="polygon3159" /><polygon
       points="4130 2650 3997 2701 3910 2479 3952 2463 4024 2647 4115 2612"
       class="fil12"
       id="polygon3161" /><polygon
       points="3969 2712 3927 2729 3840 2506 3882 2490"
       class="fil12"
       id="polygon3163" /><polygon
       points="3899 2740 3857 2756 3817 2655 3822 2707 3793 2718 3761 2677 3800 2778 3758 2794 3671 2572 3713 2556 3781 2644 3770 2533 3812 2517"
       class="fil12"
       id="polygon3165" /><path
       class="fil12"
       d="m3384 2771l-9-23c-1-4-4-7-7-9s-7-3-11-1l-44 17 21 53 44-17c8-3 11-10 7-20zm99 130l-44 17-80-77-11 4 37 94-42 16-87-222 86-33c15-6 30-6 45 0s25 16 31 31l9 23c5 13 5 26 1 38-5 13-13 23-25 30l81 78zm-163 63l-141 55-87-222 135-52 15 38-93 36 21 55 68-26 15 38-68 26 21 54 99-39 15 38zm-262-67l-9-23c-1-4-4-7-7-9s-7-3-11-1l-44 17 21 54 44-17c4-1 6-4 7-8s1-8-1-12zm42-16c6 15 5 29-2 44-7 14-18 24-33 30l-44 17 37 94-42 16-87-222 86-33c15-6 30-6 45 0s25 16 31 31l9 23zm-125 159c6 15 5 29-2 44-7 14-18 24-33 30l-32 12c-15 6-30 6-44 0-15-6-25-16-31-31l-67-172 42-16 67 172c1 4 4 7 8 9s7 3 11 1l32-12c4-1 6-4 7-8s1-8 0-12l-67-172 42-16 67 172z"
       id="path3167" /><path
       class="fil12"
       d="m3707 2742c7 19 7 37-2 55s-22 30-41 38l-39 15c-18 7-36 7-55 0-18-7-31-20-39-37l47-34 4 12c2 5 5 8 9 11s9 3 13 1l39-15c5-2 8-5 10-10s2-10 0-15l-8-20c-4-11-11-17-21-18l-84-2c-31-1-51-15-62-41l-9-24c-7-18-6-36 2-54 9-18 22-31 41-38l39-15c18-7 37-7 55 0s31 20 39 38l-47 33-5-12c-2-4-5-8-10-11s-9-3-14-1l-39 15c-4 2-7 5-9 10-1 5-1 10 0 14l4 11c5 12 11 18 20 18l84 2c30 1 51 14 61 41l13 33z"
       id="path3169" /><path
       class="fil12"
       d="m2803 3094c7 19 7 37-2 55s-22 30-41 38l-39 15c-18 7-36 7-55 0-18-7-31-20-39-37l47-34 4 12c2 5 5 8 9 11s9 3 13 1l39-15c5-2 8-5 10-10s2-10 0-15l-8-20c-4-11-11-17-21-18l-84-2c-31-1-51-15-62-41l-9-24c-7-18-6-36 2-54 9-18 22-31 41-38l39-15c18-7 37-7 55 0s31 20 39 38l-47 33-5-12c-2-4-5-8-10-11s-9-3-14-1l-39 15c-4 2-7 5-9 10-1 5-1 10 0 14l4 11c5 12 11 18 20 18l84 2c30 1 51 14 61 41l13 33z"
       id="path3171" /></g><metadata
     id="metadata3173"><rdf:RDF><cc:Work><dc:format>image/svg+xml</dc:format><dc:type
           rdf:resource="http://purl.org/dc/dcmitype/StillImage" /><cc:license
           rdf:resource="http://creativecommons.org/licenses/publicdomain/" /><dc:publisher><cc:Agent
             rdf:about="http://openclipart.org/"><dc:title>Openclipart</dc:title></cc:Agent></dc:publisher><dc:title></dc:title><dc:date>2013-09-12T23:54:41</dc:date><dc:description>Simple Tickets</dc:description><dc:source>http://openclipart.org/detail/183401/event-tickets-by-barrettward-183401</dc:source><dc:creator><cc:Agent><dc:title>barrettward</dc:title></cc:Agent></dc:creator><dc:subject><rdf:Bag><rdf:li>admit</rdf:li><rdf:li>admit one</rdf:li><rdf:li>event</rdf:li><rdf:li>event tickets</rdf:li><rdf:li>movie</rdf:li><rdf:li>movie tickets</rdf:li><rdf:li>ticket</rdf:li><rdf:li>tickets</rdf:li></rdf:Bag></dc:subject></cc:Work><cc:License
         rdf:about="http://creativecommons.org/licenses/publicdomain/"><cc:permits
           rdf:resource="http://creativecommons.org/ns#Reproduction" /><cc:permits
           rdf:resource="http://creativecommons.org/ns#Distribution" /><cc:permits
           rdf:resource="http://creativecommons.org/ns#DerivativeWorks" /></cc:License></rdf:RDF></metadata></svg>