<?xml version="1.0" encoding="UTF-8" standalone="no"?>
<svg
   xmlns:dc="http://purl.org/dc/elements/1.1/"
   xmlns:cc="http://creativecommons.org/ns#"
   xmlns:rdf="http://www.w3.org/1999/02/22-rdf-syntax-ns#"
   xmlns:svg="http://www.w3.org/2000/svg"
   xmlns="http://www.w3.org/2000/svg"
   xmlns:sodipodi="http://sodipodi.sourceforge.net/DTD/sodipodi-0.dtd"
   xmlns:inkscape="http://www.inkscape.org/namespaces/inkscape"
   style="shape-rendering:geometricPrecision;text-rendering:geometricPrecision;image-rendering:optimizeQuality"
   fill-rule="evenodd"
   xml:space="preserve"
   version="1.1"
   clip-rule="evenodd"
   viewBox="0 0 8769 8674"
   id="svg3100"
   inkscape:version="0.48.4 r9939"
   width="100%"
   height="100%"
   sodipodi:docname="tickets_favicon.svg"><sodipodi:namedview
     pagecolor="#ffffff"
     bordercolor="#666666"
     borderopacity="1"
     objecttolerance="10"
     gridtolerance="10"
     guidetolerance="10"
     inkscape:pageopacity="0"
     inkscape:pageshadow="2"
     inkscape:window-width="983"
     inkscape:window-height="576"
     id="namedview3175"
     showgrid="false"
     inkscape:zoom="0.08117387"
     inkscape:cx="4205.6482"
     inkscape:cy="5142.0062"
     inkscape:window-x="41"
     inkscape:window-y="24"
     inkscape:window-maximized="1"
     inkscape:current-layer="svg3100" /><defs
     id="defs3102"><style
       type="text/css"
       id="style3104">
    .fil1 {fill:none}
    .fil6 {fill:#AE7274}
    .fil5 {fill:#B37D72}
    .fil11 {fill:#BA7728}
    .fil2 {fill:#D4989A}
    .fil8 {fill:#EBC05B}
    .fil0 {fill:#F5F2F2}
    .fil7 {fill:#6E392E;fill-rule:nonzero}
    .fil9 {fill:#73452A;fill-rule:nonzero}
    .fil12 {fill:#82522A;fill-rule:nonzero}
    .fil3 {fill:#945F54;fill-rule:nonzero}
    .fil4 {fill:#B37D72;fill-rule:nonzero}
    .fil10 {fill:#BA7728;fill-rule:nonzero}
  </style></defs><polygon
     style="fill:none"
     id="polygon3109"
     class="fil1"
     points="0,8674 0,0 8769,0 8769,8674 " /><g
     id="g3022"
     inkscape:export-xdpi="0.48913044"
     inkscape:export-ydpi="0.48913044"><path
       class="fil8"
       d="m 764,2966 4903,-1909 30,77 c -37,14 -56,56 -41,93 14,37 56,56 93,41 l 36,94 c -37,14 -56,56 -41,93 14,37 56,56 93,41 l 36,94 c -37,14 -56,56 -41,93 14,37 56,56 93,41 l 39,101 c -217,85 -325,330 -240,547 85,217 330,325 547,240 l 39,101 c -37,14 -56,56 -41,93 14,37 56,56 93,41 l 36,94 c -37,14 -56,56 -41,93 14,37 56,56 93,41 l 36,94 c -37,14 -56,56 -41,93 14,37 56,56 93,41 l 30,77 -4903,1909 -30,-77 c 37,-14 56,-56 41,-93 -14,-37 -56,-56 -93,-41 l -36,-94 c 37,-14 56,-56 41,-93 -14,-37 -56,-56 -93,-41 l -36,-94 c 37,-14 56,-56 41,-93 -14,-37 -56,-56 -93,-41 l -39,-101 c 217,-85 325,-330 240,-547 -85,-217 -330,-325 -547,-240 l -39,-101 c 37,-14 56,-56 41,-93 -14,-37 -56,-56 -93,-41 l -36,-94 c 37,-14 56,-56 41,-93 -14,-37 -56,-56 -93,-41 l -36,-94 c 37,-14 56,-56 41,-93 -14,-37 -56,-56 -93,-41 l -30,-77 z"
       id="path3145"
       inkscape:connector-curvature="0"
       style="fill:#ebc05b" /><path
       class="fil9"
       d="m 1570,2918 420,-164 2632,-1024 420,-164 c 32,-13 66,-11 96,2 29,13 54,37 66,69 l 634,1628 c 13,32 11,66 -2,96 -13,29 -37,54 -69,66 l -395,154 -26,10 -2632,1024 -26,10 -395,154 c -32,13 -66,11 -96,-2 -29,-13 -54,-37 -66,-69 L 1497,3080 c -13,-32 -11,-66 2,-96 13,-29 37,-54 69,-66 z m 3097,-1147 685,1759 395,-154 c 18,-7 32,-21 39,-37 7,-17 8,-36 1,-54 L 5153,1657 c -7,-18 -21,-32 -37,-39 -17,-7 -36,-8 -54,-1 l -395,154 z M 2669,4575 1984,2816 1589,2970 c -18,7 -32,21 -39,37 -7,17 -8,36 -1,54 l 634,1628 c 7,18 21,32 37,39 17,7 36,8 54,1 l 395,-154 z M 2035,2796 2720,4555 5300,3551 4615,1792 2035,2796 z"
       id="path3147"
       inkscape:connector-curvature="0"
       style="fill:#73452a;fill-rule:nonzero" /><path
       class="fil10"
       d="m 1861,3318 c 3,9 6,15 9,18 3,4 6,6 9,7 5,2 14,1 26,-2 12,-3 28,-8 47,-16 18,-7 33,-14 44,-20 11,-6 18,-11 23,-16 3,-3 4,-7 3,-11 0,-5 -2,-12 -6,-21 -4,-9 -7,-16 -10,-20 -3,-4 -6,-6 -10,-6 -7,-1 -16,0 -28,4 -12,3 -27,8 -45,15 -16,6 -29,12 -40,17 -11,5 -18,10 -22,15 -4,4 -6,8 -6,12 0,5 2,12 6,23 z m 102,36 c -22,9 -41,14 -56,17 -15,3 -28,2 -38,-1 -6,-2 -12,-6 -17,-13 -5,-7 -10,-17 -15,-30 -5,-13 -8,-24 -9,-32 -1,-9 1,-16 4,-22 5,-9 14,-17 28,-26 13,-9 31,-17 52,-25 21,-8 40,-14 56,-16 16,-3 29,-3 38,0 6,2 12,6 18,13 5,7 10,17 16,30 4,11 7,21 8,29 1,8 0,15 -2,21 -4,9 -13,18 -26,28 -14,9 -32,19 -56,28 z m 121,19 38,98 -23,9 -29,-74 -42,14 c 1,1 1,3 2,5 1,2 2,5 3,8 8,20 8,39 2,56 -7,17 -19,30 -38,37 -22,9 -43,6 -63,-7 -20,-13 -36,-36 -49,-69 l -3,-7 24,-10 c 0,1 1,3 1,4 0,1 1,4 2,6 9,23 20,39 34,49 13,9 28,11 43,5 12,-5 19,-13 23,-24 3,-11 2,-25 -4,-40 -2,-4 -4,-8 -6,-14 -3,-5 -6,-11 -9,-18 l 93,-29 z m -24,239 24,16 c 11,8 21,13 28,15 7,2 15,1 22,-1 8,-3 13,-9 16,-17 3,-8 3,-17 -1,-27 -3,-7 -7,-14 -14,-21 -7,-7 -16,-15 -29,-24 l 31,-12 c 8,6 14,13 20,20 6,8 10,17 14,27 8,20 9,37 4,52 -5,15 -16,26 -33,32 -11,4 -21,5 -32,2 -11,-3 -24,-9 -38,-19 l -19,-14 c -13,-10 -25,-15 -33,-17 -9,-2 -18,-1 -27,2 l -6,2 34,87 -24,9 -45,-116 c 1,-1 3,-2 4,-2 2,-1 4,-2 7,-3 20,-8 38,-11 52,-10 14,1 30,7 45,18 z m -10,151 c -1,10 -1,20 0,29 1,9 3,18 6,27 5,14 13,23 24,29 11,5 22,6 35,1 13,-5 20,-13 23,-24 2,-11 0,-26 -7,-45 l -2,-4 -3,-6 20,-8 74,32 -33,-84 24,-9 46,118 -27,10 -70,-31 c 6,18 6,34 0,49 -6,14 -18,25 -35,31 -20,8 -38,7 -55,-2 -17,-9 -30,-26 -39,-49 -3,-7 -5,-15 -7,-24 -1,-9 -2,-18 -2,-28 l 28,-11 z m 68,203 c 20,-8 40,-12 60,-12 20,0 40,3 60,10 l 23,8 c 10,3 17,5 21,6 4,1 7,1 9,0 h 1 l -37,-96 23,-9 50,129 -9,4 c -15,6 -35,4 -60,-4 -3,-1 -5,-2 -7,-2 l -21,-7 c -18,-6 -35,-9 -51,-8 -16,0 -33,4 -50,10 l -27,10 -10,-27 25,-10 z m 67,171 c 20,-8 40,-12 60,-12 20,0 40,3 60,10 l 23,8 c 10,3 17,5 21,6 4,1 7,1 9,0 h 1 l -37,-96 23,-9 50,129 -9,4 c -15,6 -35,4 -60,-4 -3,-1 -5,-2 -7,-2 l -21,-7 c -18,-6 -35,-9 -51,-8 -16,0 -33,4 -50,10 l -27,10 -10,-27 25,-10 z m 212,132 -60,-31 35,-14 56,31 12,30 -196,76 -11,-28 165,-64 z"
       id="path3149"
       inkscape:connector-curvature="0"
       style="fill:#ba7728;fill-rule:nonzero" /><path
       class="fil10"
       d="m 5475,3029 c -3,-9 -6,-15 -9,-18 -3,-4 -6,-6 -9,-7 -5,-2 -14,-1 -26,2 -12,3 -28,8 -47,16 -18,7 -33,14 -44,20 -11,6 -18,11 -23,16 -3,3 -4,7 -3,11 0,5 2,12 6,21 4,9 7,16 10,20 3,4 6,6 10,6 7,1 16,0 28,-4 12,-3 27,-8 45,-15 16,-6 29,-12 40,-17 11,-5 18,-10 22,-15 4,-4 6,-8 6,-12 0,-5 -2,-12 -6,-23 z m -102,-36 c 22,-9 41,-14 56,-17 15,-3 28,-2 38,1 6,2 12,6 17,13 5,7 10,17 15,30 5,13 8,24 9,32 1,9 -1,16 -4,22 -5,9 -14,17 -28,26 -13,9 -31,17 -52,25 -21,8 -40,14 -56,16 -16,3 -29,3 -38,0 -6,-2 -12,-6 -18,-13 -5,-7 -10,-17 -16,-30 -4,-11 -7,-21 -8,-29 -1,-8 0,-15 2,-21 4,-9 13,-18 26,-28 14,-9 32,-19 56,-28 z m -121,-19 -38,-98 23,-9 29,74 42,-14 c -1,-1 -1,-3 -2,-5 -1,-2 -2,-5 -3,-8 -8,-20 -8,-39 -2,-56 7,-17 19,-30 38,-37 22,-9 43,-6 63,7 20,13 36,36 49,69 l 3,7 -24,10 c 0,-1 -1,-3 -1,-4 0,-1 -1,-4 -2,-6 -9,-23 -20,-39 -34,-49 -13,-9 -28,-11 -43,-5 -12,5 -19,13 -23,24 -3,11 -2,25 4,40 2,4 4,8 6,14 3,5 6,11 9,18 l -93,29 z m 24,-239 -24,-16 c -11,-8 -21,-13 -28,-15 -7,-2 -15,-1 -22,1 -8,3 -13,9 -16,17 -3,8 -3,17 1,27 3,7 7,14 14,21 7,7 16,15 29,24 l -31,12 c -8,-6 -14,-13 -20,-20 -6,-8 -10,-17 -14,-27 -8,-20 -9,-37 -4,-52 5,-15 16,-26 33,-32 11,-4 21,-5 32,-2 11,3 24,9 38,19 l 19,14 c 13,10 25,15 33,17 9,2 18,1 27,-2 l 6,-2 -34,-87 24,-9 45,116 c -1,1 -3,2 -5,2 -2,1 -4,2 -7,3 -20,8 -38,11 -52,10 -14,-1 -30,-7 -45,-18 z m 10,-151 c 1,-10 1,-20 0,-29 -1,-9 -3,-18 -6,-27 -5,-14 -13,-23 -24,-29 -11,-5 -22,-6 -35,-1 -13,5 -20,13 -23,24 -2,11 0,26 7,45 l 2,4 3,6 -20,8 -74,-32 33,84 -24,9 -46,-118 27,-10 70,31 c -6,-18 -6,-34 0,-49 6,-14 18,-25 35,-31 20,-8 38,-7 55,2 17,9 30,26 39,49 3,7 5,15 7,24 1,9 2,18 2,28 l -28,11 z m -68,-203 c -20,8 -40,12 -60,12 -20,0 -40,-3 -60,-10 l -23,-8 c -10,-3 -17,-5 -21,-6 -4,-1 -7,-1 -9,0 h -1 l 37,96 -23,9 -50,-129 9,-4 c 15,-6 35,-4 60,4 3,1 5,2 7,2 l 21,7 c 18,6 35,9 51,8 16,0 33,-4 50,-10 l 27,-10 10,27 -25,10 z m -67,-171 c -20,8 -40,12 -60,12 -20,0 -40,-3 -60,-10 l -23,-8 c -10,-3 -17,-5 -21,-6 -4,-1 -7,-1 -9,0 h -1 l 37,96 -23,9 -50,-129 9,-4 c 15,-6 35,-4 60,4 3,1 5,2 7,2 l 21,7 c 18,6 35,9 51,8 16,0 33,-4 50,-10 l 27,-10 10,27 -25,10 z m -212,-132 60,31 -35,14 -56,-31 -12,-30 196,-76 11,28 -165,64 z"
       id="path3151"
       inkscape:connector-curvature="0"
       style="fill:#ba7728;fill-rule:nonzero" /><path
       class="fil11"
       d="m 2642,3352 43,52 63,-25 -37,57 43,52 -65,-17 -36,57 -4,-67 -65,-17 63,-24 -4,-67 z m 272,-106 43,52 63,-25 -37,57 43,52 -65,-17 -36,57 -4,-67 -65,-17 63,-24 -4,-67 z m 272,-106 43,52 63,-25 -37,57 43,52 -65,-17 -36,57 -4,-67 -65,-17 63,-24 -4,-67 z m 272,-106 43,52 63,-25 -37,57 43,52 -65,-17 -36,57 -4,-67 -65,-17 63,-24 -4,-67 z m 272,-106 43,52 63,-25 -37,57 43,52 -65,-17 -36,57 -4,-67 -65,-17 63,-24 -4,-67 z m 272,-106 43,52 63,-25 -37,57 43,52 -65,-17 -36,57 -4,-67 -65,-17 63,-24 -4,-67 z m 272,-106 43,52 63,-25 -37,57 43,52 -65,-17 -36,57 -4,-67 -65,-17 63,-24 -4,-67 z m 272,-106 43,52 63,-25 -37,57 43,52 -65,-17 -36,57 -4,-67 -65,-17 63,-24 -4,-67 z"
       id="path3153"
       inkscape:connector-curvature="0"
       style="fill:#ba7728" /><path
       class="fil12"
       d="m 3174,4194 -70,27 -51,-89 -77,30 23,99 -68,27 -150,-640 69,-27 324,573 z m -175,-159 -87,-155 41,173 47,-18 z m 354,-76 c 16,41 20,78 14,112 -6,34 -21,56 -45,65 l -135,53 -40,-103 17,-7 -156,-401 -17,7 -40,-103 135,-53 c 23,-9 49,-3 77,18 28,21 50,52 66,92 l 124,320 z m -67,25 -124,-319 c -4,-10 -10,-19 -17,-26 -7,-7 -14,-9 -20,-7 l -52,20 156,401 52,-20 c 6,-2 9,-9 10,-19 1,-10 -1,-20 -5,-31 z m 379,18 -66,26 -108,-276 28,137 -45,18 -72,-120 108,276 -66,26 -236,-607 66,-26 151,255 -61,-290 66,-26 236,607 z m 100,-39 -66,26 -236,-607 66,-26 236,607 z m 49,-599 -77,30 196,504 -66,26 -196,-504 -76,30 -40,-103 219,-85 40,103 z m 584,195 c 16,41 20,78 14,112 -6,34 -21,56 -45,65 l -49,19 c -24,9 -49,3 -77,-17 -27,-21 -49,-52 -65,-92 l -130,-333 c -16,-41 -20,-78 -14,-112 6,-34 21,-56 45,-65 l 49,-19 c 23,-9 49,-3 77,17 28,21 50,51 65,92 l 130,333 z m -67,25 -129,-333 c -4,-10 -9,-18 -16,-25 -7,-7 -13,-9 -19,-7 l -49,19 c -6,2 -9,8 -9,18 -1,10 1,20 5,30 l 129,333 c 4,10 10,19 17,26 7,7 14,9 19,7 l 49,-19 c 6,-2 9,-8 9,-18 0,-10 -1,-20 -5,-30 z m 377,12 -66,26 -224,-308 134,343 -66,26 -236,-607 66,-26 1,2 224,309 -135,-346 66,-26 236,607 z m 257,-100 -223,87 -236,-607 213,-83 40,103 -146,57 58,150 107,-41 40,103 -107,41 58,148 156,-61 40,103 z"
       id="path3155"
       inkscape:connector-curvature="0"
       style="fill:#82522a;fill-rule:nonzero" /><path
       class="fil12"
       d="m 4432,2474 c 6,15 5,29 -2,44 -7,14 -18,24 -33,30 l -31,12 c -15,6 -29,6 -44,0 -14,-6 -25,-16 -31,-30 l 38,-27 4,9 c 1,4 4,7 8,9 4,2 7,3 11,1 l 31,-12 c 4,-1 6,-4 8,-8 1,-4 1,-8 0,-12 l -6,-16 c -3,-9 -9,-14 -17,-14 l -67,-2 c -25,-1 -41,-12 -49,-33 l -7,-19 c -6,-15 -5,-29 2,-43 7,-14 18,-24 33,-30 l 31,-12 c 15,-6 29,-6 44,0 15,6 25,16 31,30 l -38,27 -4,-9 c -1,-4 -4,-6 -8,-9 -4,-2 -8,-2 -11,-1 l -31,12 c -4,1 -6,4 -7,8 -1,4 -1,8 0,11 l 3,9 c 4,9 9,14 16,14 l 68,1 c 24,1 41,12 49,33 l 10,26 z"
       id="path3157"
       inkscape:connector-curvature="0"
       style="fill:#82522a;fill-rule:nonzero" /><polygon
       points="4196,2368 4211,2405 4118,2441 4140,2496 4207,2470 4222,2508 4154,2534 4176,2588 4275,2550 4289,2587 4148,2642 4062,2420 "
       class="fil12"
       id="polygon3159"
       style="fill:#82522a;fill-rule:nonzero" /><polygon
       points="3952,2463 4024,2647 4115,2612 4130,2650 3997,2701 3910,2479 "
       class="fil12"
       id="polygon3161"
       style="fill:#82522a;fill-rule:nonzero" /><polygon
       points="3882,2490 3969,2712 3927,2729 3840,2506 "
       class="fil12"
       id="polygon3163"
       style="fill:#82522a;fill-rule:nonzero" /><polygon
       points="3822,2707 3793,2718 3761,2677 3800,2778 3758,2794 3671,2572 3713,2556 3781,2644 3770,2533 3812,2517 3899,2740 3857,2756 3817,2655 "
       class="fil12"
       id="polygon3165"
       style="fill:#82522a;fill-rule:nonzero" /><path
       class="fil12"
       d="m 3384,2771 -9,-23 c -1,-4 -4,-7 -7,-9 -3,-2 -7,-3 -11,-1 l -44,17 21,53 44,-17 c 8,-3 11,-10 7,-20 z m 99,130 -44,17 -80,-77 -11,4 37,94 -42,16 -87,-222 86,-33 c 15,-6 30,-6 45,0 15,6 25,16 31,31 l 9,23 c 5,13 5,26 1,38 -5,13 -13,23 -25,30 l 81,78 z m -163,63 -141,55 -87,-222 135,-52 15,38 -93,36 21,55 68,-26 15,38 -68,26 21,54 99,-39 15,38 z m -262,-67 -9,-23 c -1,-4 -4,-7 -7,-9 -3,-2 -7,-3 -11,-1 l -44,17 21,54 44,-17 c 4,-1 6,-4 7,-8 1,-4 1,-8 -1,-12 z m 42,-16 c 6,15 5,29 -2,44 -7,14 -18,24 -33,30 l -44,17 37,94 -42,16 -87,-222 86,-33 c 15,-6 30,-6 45,0 15,6 25,16 31,31 l 9,23 z m -125,159 c 6,15 5,29 -2,44 -7,14 -18,24 -33,30 l -32,12 c -15,6 -30,6 -44,0 -15,-6 -25,-16 -31,-31 l -67,-172 42,-16 67,172 c 1,4 4,7 8,9 4,2 7,3 11,1 l 32,-12 c 4,-1 6,-4 7,-8 1,-4 1,-8 0,-12 l -67,-172 42,-16 67,172 z"
       id="path3167"
       inkscape:connector-curvature="0"
       style="fill:#82522a;fill-rule:nonzero" /><path
       class="fil12"
       d="m 3707,2742 c 7,19 7,37 -2,55 -9,18 -22,30 -41,38 l -39,15 c -18,7 -36,7 -55,0 -18,-7 -31,-20 -39,-37 l 47,-34 4,12 c 2,5 5,8 9,11 4,3 9,3 13,1 l 39,-15 c 5,-2 8,-5 10,-10 2,-5 2,-10 0,-15 l -8,-20 c -4,-11 -11,-17 -21,-18 l -84,-2 c -31,-1 -51,-15 -62,-41 l -9,-24 c -7,-18 -6,-36 2,-54 9,-18 22,-31 41,-38 l 39,-15 c 18,-7 37,-7 55,0 18,7 31,20 39,38 l -47,33 -5,-12 c -2,-4 -5,-8 -10,-11 -5,-3 -9,-3 -14,-1 l -39,15 c -4,2 -7,5 -9,10 -1,5 -1,10 0,14 l 4,11 c 5,12 11,18 20,18 l 84,2 c 30,1 51,14 61,41 l 13,33 z"
       id="path3169"
       inkscape:connector-curvature="0"
       style="fill:#82522a;fill-rule:nonzero" /><path
       class="fil12"
       d="m 2803,3094 c 7,19 7,37 -2,55 -9,18 -22,30 -41,38 l -39,15 c -18,7 -36,7 -55,0 -18,-7 -31,-20 -39,-37 l 47,-34 4,12 c 2,5 5,8 9,11 4,3 9,3 13,1 l 39,-15 c 5,-2 8,-5 10,-10 2,-5 2,-10 0,-15 l -8,-20 c -4,-11 -11,-17 -21,-18 l -84,-2 c -31,-1 -51,-15 -62,-41 l -9,-24 c -7,-18 -6,-36 2,-54 9,-18 22,-31 41,-38 l 39,-15 c 18,-7 37,-7 55,0 18,7 31,20 39,38 l -47,33 -5,-12 c -2,-4 -5,-8 -10,-11 -5,-3 -9,-3 -14,-1 l -39,15 c -4,2 -7,5 -9,10 -1,5 -1,10 0,14 l 4,11 c 5,12 11,18 20,18 l 84,2 c 30,1 51,14 61,41 l 13,33 z"
       id="path3171"
       inkscape:connector-curvature="0"
       style="fill:#82522a;fill-rule:nonzero" /></g><metadata
     id="metadata3173"><rdf:RDF><cc:Work><dc:format>image/svg+xml</dc:format><dc:type
           rdf:resource="http://purl.org/dc/dcmitype/StillImage" /><cc:license
           rdf:resource="http://creativecommons.org/licenses/publicdomain/" /><dc:publisher><cc:Agent
             rdf:about="http://openclipart.org/"><dc:title>Openclipart</dc:title></cc:Agent></dc:publisher><dc:title></dc:title><dc:date>2013-09-12T23:54:41</dc:date><dc:description>Simple Tickets</dc:description><dc:source>http://openclipart.org/detail/183401/event-tickets-by-barrettward-183401</dc:source><dc:creator><cc:Agent><dc:title>barrettward</dc:title></cc:Agent></dc:creator><dc:subject><rdf:Bag><rdf:li>admit</rdf:li><rdf:li>admit one</rdf:li><rdf:li>event</rdf:li><rdf:li>event tickets</rdf:li><rdf:li>movie</rdf:li><rdf:li>movie tickets</rdf:li><rdf:li>ticket</rdf:li><rdf:li>tickets</rdf:li></rdf:Bag></dc:subject></cc:Work><cc:License
         rdf:about="http://creativecommons.org/licenses/publicdomain/"><cc:permits
           rdf:resource="http://creativecommons.org/ns#Reproduction" /><cc:permits
           rdf:resource="http://creativecommons.org/ns#Distribution" /><cc:permits
           rdf:resource="http://creativecommons.org/ns#DerivativeWorks" /></cc:License></rdf:RDF></metadata></svg>